%FSLAX45Y45*%
G04 Gerber Fmt 4.5, Leading zero omitted, Abs format (unit mm)*
G04 Created by KiCad (PCBNEW (6.0.1)) date 2022-01-26 11:25:28*
%MOMM*%
%LPD*%
G01*
G04 APERTURE LIST*
%TA.AperFunction,Profile*%
%ADD10C,0.100000*%
%TD*%
%ADD11C,0.200000*%
%ADD12C,0.040000*%
%ADD13C,0.100000*%
%ADD14C,0.150000*%
%ADD15C,0.170000*%
G04 APERTURE END LIST*
D10*
X4570000Y-15250000D02*
X14570000Y-15250000D01*
X14570000Y-15250000D02*
X14570000Y-7750000D01*
X14570000Y-7750000D02*
X4570000Y-7750000D01*
X4570000Y-7750000D02*
X4570000Y-15250000D01*
X7683500Y-9743440D02*
X8823960Y-9743440D01*
X8823960Y-9743440D02*
X8823960Y-7967980D01*
X8823960Y-7967980D02*
X7683500Y-7967980D01*
X7683500Y-7967980D02*
X7683500Y-9743440D01*
X7683500Y-11015980D02*
X8813800Y-11015980D01*
X8813800Y-11015980D02*
X8813800Y-12786360D01*
X8813800Y-12786360D02*
X7683500Y-12786360D01*
X7683500Y-12786360D02*
X7683500Y-11015980D01*
D11*
D12*
X4810000Y-10570000D02*
X4850000Y-10610000D01*
X4850000Y-10570000D02*
X4810000Y-10610000D01*
X5670000Y-14500000D02*
X5710000Y-14540000D01*
X5710000Y-14500000D02*
X5670000Y-14540000D01*
X5700000Y-14700000D02*
X5740000Y-14740000D01*
X5740000Y-14700000D02*
X5700000Y-14740000D01*
X5740000Y-11130000D02*
X5780000Y-11170000D01*
X5780000Y-11130000D02*
X5740000Y-11170000D01*
X5840000Y-12090000D02*
X5880000Y-12130000D01*
X5880000Y-12090000D02*
X5840000Y-12130000D01*
X6280000Y-10130000D02*
X6320000Y-10170000D01*
X6320000Y-10130000D02*
X6280000Y-10170000D01*
X6300000Y-10670000D02*
X6340000Y-10710000D01*
X6340000Y-10670000D02*
X6300000Y-10710000D01*
X6320000Y-12450000D02*
X6360000Y-12490000D01*
X6360000Y-12450000D02*
X6320000Y-12490000D01*
X6340000Y-14560000D02*
X6380000Y-14600000D01*
X6380000Y-14560000D02*
X6340000Y-14600000D01*
X6370000Y-13800000D02*
X6410000Y-13840000D01*
X6410000Y-13800000D02*
X6370000Y-13840000D01*
X6490000Y-11230000D02*
X6530000Y-11270000D01*
X6530000Y-11230000D02*
X6490000Y-11270000D01*
X6590000Y-12100000D02*
X6630000Y-12140000D01*
X6630000Y-12100000D02*
X6590000Y-12140000D01*
X6680000Y-12410000D02*
X6720000Y-12450000D01*
X6720000Y-12410000D02*
X6680000Y-12450000D01*
X6760000Y-12590000D02*
X6800000Y-12630000D01*
X6800000Y-12590000D02*
X6760000Y-12630000D01*
X6790000Y-12780000D02*
X6830000Y-12820000D01*
X6830000Y-12780000D02*
X6790000Y-12820000D01*
X8240000Y-9840000D02*
X8280000Y-9880000D01*
X8280000Y-9840000D02*
X8240000Y-9880000D01*
X8240000Y-9996750D02*
X8280000Y-10036750D01*
X8280000Y-9996750D02*
X8240000Y-10036750D01*
X8240000Y-10250000D02*
X8280000Y-10290000D01*
X8280000Y-10250000D02*
X8240000Y-10290000D01*
X8240000Y-10450000D02*
X8280000Y-10490000D01*
X8280000Y-10450000D02*
X8240000Y-10490000D01*
X8240000Y-10713250D02*
X8280000Y-10753250D01*
X8280000Y-10713250D02*
X8240000Y-10753250D01*
X8240000Y-10850000D02*
X8280000Y-10890000D01*
X8280000Y-10850000D02*
X8240000Y-10890000D01*
X9420000Y-13880000D02*
X9460000Y-13920000D01*
X9460000Y-13880000D02*
X9420000Y-13920000D01*
X9510000Y-13030000D02*
X9550000Y-13070000D01*
X9550000Y-13030000D02*
X9510000Y-13070000D01*
X9580000Y-12580000D02*
X9620000Y-12620000D01*
X9620000Y-12580000D02*
X9580000Y-12620000D01*
X9630000Y-13100000D02*
X9670000Y-13140000D01*
X9670000Y-13100000D02*
X9630000Y-13140000D01*
X10850000Y-12320000D02*
X10890000Y-12360000D01*
X10890000Y-12320000D02*
X10850000Y-12360000D01*
X10910000Y-12150000D02*
X10950000Y-12190000D01*
X10950000Y-12150000D02*
X10910000Y-12190000D01*
X10950000Y-12470000D02*
X10990000Y-12510000D01*
X10990000Y-12470000D02*
X10950000Y-12510000D01*
X10950000Y-12870000D02*
X10990000Y-12910000D01*
X10990000Y-12870000D02*
X10950000Y-12910000D01*
X11110000Y-12150000D02*
X11150000Y-12190000D01*
X11150000Y-12150000D02*
X11110000Y-12190000D01*
X11120000Y-12480000D02*
X11160000Y-12520000D01*
X11160000Y-12480000D02*
X11120000Y-12520000D01*
X11210000Y-12960000D02*
X11250000Y-13000000D01*
X11250000Y-12960000D02*
X11210000Y-13000000D01*
X11290000Y-12150000D02*
X11330000Y-12190000D01*
X11330000Y-12150000D02*
X11290000Y-12190000D01*
X11300000Y-12480000D02*
X11340000Y-12520000D01*
X11340000Y-12480000D02*
X11300000Y-12520000D01*
X11380000Y-12310000D02*
X11420000Y-12350000D01*
X11420000Y-12310000D02*
X11380000Y-12350000D01*
X12140000Y-13150000D02*
X12180000Y-13190000D01*
X12180000Y-13150000D02*
X12140000Y-13190000D01*
X12222800Y-14227200D02*
X12262800Y-14267200D01*
X12262800Y-14227200D02*
X12222800Y-14267200D01*
X12440000Y-14400000D02*
X12480000Y-14440000D01*
X12480000Y-14400000D02*
X12440000Y-14440000D01*
X12970000Y-12500000D02*
X13010000Y-12540000D01*
X13010000Y-12500000D02*
X12970000Y-12540000D01*
X13200000Y-12500000D02*
X13240000Y-12540000D01*
X13240000Y-12500000D02*
X13200000Y-12540000D01*
X13590000Y-13160000D02*
X13630000Y-13200000D01*
X13630000Y-13160000D02*
X13590000Y-13200000D01*
X13600000Y-13430000D02*
X13640000Y-13470000D01*
X13640000Y-13430000D02*
X13600000Y-13470000D01*
X13600000Y-13750000D02*
X13640000Y-13790000D01*
X13640000Y-13750000D02*
X13600000Y-13790000D01*
X13680000Y-10840000D02*
X13720000Y-10880000D01*
X13720000Y-10840000D02*
X13680000Y-10880000D01*
X14040000Y-10500000D02*
X14080000Y-10540000D01*
X14080000Y-10500000D02*
X14040000Y-10540000D01*
X14040000Y-12900000D02*
X14080000Y-12940000D01*
X14080000Y-12900000D02*
X14040000Y-12940000D01*
X14040000Y-13960000D02*
X14080000Y-14000000D01*
X14080000Y-13960000D02*
X14040000Y-14000000D01*
X14060000Y-11170000D02*
X14100000Y-11210000D01*
X14100000Y-11170000D02*
X14060000Y-11210000D01*
X14320000Y-13970000D02*
X14360000Y-14010000D01*
X14360000Y-13970000D02*
X14320000Y-14010000D01*
X14350000Y-12890000D02*
X14390000Y-12930000D01*
X14390000Y-12890000D02*
X14350000Y-12930000D01*
X14430000Y-10840000D02*
X14470000Y-10880000D01*
X14470000Y-10840000D02*
X14430000Y-10880000D01*
D13*
X9794500Y-14046250D02*
G75*
G03*
X9794500Y-14046250I-50000J0D01*
G01*
X10048500Y-14046250D02*
G75*
G03*
X10048500Y-14046250I-50000J0D01*
G01*
X10302500Y-14046250D02*
G75*
G03*
X10302500Y-14046250I-50000J0D01*
G01*
X11238000Y-14046250D02*
G75*
G03*
X11238000Y-14046250I-50000J0D01*
G01*
X11492000Y-14046250D02*
G75*
G03*
X11492000Y-14046250I-50000J0D01*
G01*
X11746000Y-14046250D02*
G75*
G03*
X11746000Y-14046250I-50000J0D01*
G01*
X12000000Y-14046250D02*
G75*
G03*
X12000000Y-14046250I-50000J0D01*
G01*
D14*
X5090000Y-8865000D02*
X5090000Y-9015000D01*
X5015000Y-8940000D02*
X5165000Y-8940000D01*
X14070000Y-8855000D02*
X14070000Y-9005000D01*
X13995000Y-8930000D02*
X14145000Y-8930000D01*
D15*
X4896105Y-8746105D02*
X4896105Y-8625895D01*
X4775895Y-8625895D01*
X4775895Y-8746105D01*
X4896105Y-8746105D01*
X4896105Y-9254105D02*
X4896105Y-9133895D01*
X4775895Y-9133895D01*
X4775895Y-9254105D01*
X4896105Y-9254105D01*
X5404105Y-8746105D02*
X5404105Y-8625895D01*
X5283895Y-8625895D01*
X5283895Y-8746105D01*
X5404105Y-8746105D01*
X5404105Y-9254105D02*
X5404105Y-9133895D01*
X5283895Y-9133895D01*
X5283895Y-9254105D01*
X5404105Y-9254105D01*
X13876105Y-8736105D02*
X13876105Y-8615895D01*
X13755895Y-8615895D01*
X13755895Y-8736105D01*
X13876105Y-8736105D01*
X13876105Y-9244105D02*
X13876105Y-9123895D01*
X13755895Y-9123895D01*
X13755895Y-9244105D01*
X13876105Y-9244105D01*
X14384105Y-8736105D02*
X14384105Y-8615895D01*
X14263895Y-8615895D01*
X14263895Y-8736105D01*
X14384105Y-8736105D01*
X14384105Y-9244105D02*
X14384105Y-9123895D01*
X14263895Y-9123895D01*
X14263895Y-9244105D01*
X14384105Y-9244105D01*
D11*
X4822619Y-15565476D02*
X4822619Y-15365476D01*
X4870238Y-15365476D01*
X4898810Y-15375000D01*
X4917857Y-15394048D01*
X4927381Y-15413095D01*
X4936905Y-15451190D01*
X4936905Y-15479762D01*
X4927381Y-15517857D01*
X4917857Y-15536905D01*
X4898810Y-15555952D01*
X4870238Y-15565476D01*
X4822619Y-15565476D01*
X5022619Y-15565476D02*
X5022619Y-15432143D01*
X5022619Y-15470238D02*
X5032143Y-15451190D01*
X5041667Y-15441667D01*
X5060714Y-15432143D01*
X5079762Y-15432143D01*
X5146429Y-15565476D02*
X5146429Y-15432143D01*
X5146429Y-15365476D02*
X5136905Y-15375000D01*
X5146429Y-15384524D01*
X5155952Y-15375000D01*
X5146429Y-15365476D01*
X5146429Y-15384524D01*
X5270238Y-15565476D02*
X5251190Y-15555952D01*
X5241667Y-15536905D01*
X5241667Y-15365476D01*
X5375000Y-15565476D02*
X5355952Y-15555952D01*
X5346429Y-15536905D01*
X5346429Y-15365476D01*
X5603571Y-15565476D02*
X5603571Y-15365476D01*
X5670238Y-15508333D01*
X5736905Y-15365476D01*
X5736905Y-15565476D01*
X5917857Y-15565476D02*
X5917857Y-15460714D01*
X5908333Y-15441667D01*
X5889286Y-15432143D01*
X5851190Y-15432143D01*
X5832143Y-15441667D01*
X5917857Y-15555952D02*
X5898809Y-15565476D01*
X5851190Y-15565476D01*
X5832143Y-15555952D01*
X5822619Y-15536905D01*
X5822619Y-15517857D01*
X5832143Y-15498809D01*
X5851190Y-15489286D01*
X5898809Y-15489286D01*
X5917857Y-15479762D01*
X6013095Y-15432143D02*
X6013095Y-15632143D01*
X6013095Y-15441667D02*
X6032143Y-15432143D01*
X6070238Y-15432143D01*
X6089286Y-15441667D01*
X6098809Y-15451190D01*
X6108333Y-15470238D01*
X6108333Y-15527381D01*
X6098809Y-15546428D01*
X6089286Y-15555952D01*
X6070238Y-15565476D01*
X6032143Y-15565476D01*
X6013095Y-15555952D01*
X6194048Y-15546428D02*
X6203571Y-15555952D01*
X6194048Y-15565476D01*
X6184524Y-15555952D01*
X6194048Y-15546428D01*
X6194048Y-15565476D01*
X6194048Y-15441667D02*
X6203571Y-15451190D01*
X6194048Y-15460714D01*
X6184524Y-15451190D01*
X6194048Y-15441667D01*
X6194048Y-15460714D01*
D12*
X4525000Y-15875000D02*
X4565000Y-15915000D01*
X4565000Y-15875000D02*
X4525000Y-15915000D01*
D11*
X4860714Y-15785476D02*
X4879762Y-15785476D01*
X4898810Y-15795000D01*
X4908333Y-15804524D01*
X4917857Y-15823571D01*
X4927381Y-15861667D01*
X4927381Y-15909286D01*
X4917857Y-15947381D01*
X4908333Y-15966428D01*
X4898810Y-15975952D01*
X4879762Y-15985476D01*
X4860714Y-15985476D01*
X4841667Y-15975952D01*
X4832143Y-15966428D01*
X4822619Y-15947381D01*
X4813095Y-15909286D01*
X4813095Y-15861667D01*
X4822619Y-15823571D01*
X4832143Y-15804524D01*
X4841667Y-15795000D01*
X4860714Y-15785476D01*
X5013095Y-15966428D02*
X5022619Y-15975952D01*
X5013095Y-15985476D01*
X5003571Y-15975952D01*
X5013095Y-15966428D01*
X5013095Y-15985476D01*
X5194048Y-15852143D02*
X5194048Y-15985476D01*
X5146429Y-15775952D02*
X5098810Y-15918809D01*
X5222619Y-15918809D01*
X5336905Y-15785476D02*
X5355952Y-15785476D01*
X5375000Y-15795000D01*
X5384524Y-15804524D01*
X5394048Y-15823571D01*
X5403571Y-15861667D01*
X5403571Y-15909286D01*
X5394048Y-15947381D01*
X5384524Y-15966428D01*
X5375000Y-15975952D01*
X5355952Y-15985476D01*
X5336905Y-15985476D01*
X5317857Y-15975952D01*
X5308333Y-15966428D01*
X5298810Y-15947381D01*
X5289286Y-15909286D01*
X5289286Y-15861667D01*
X5298810Y-15823571D01*
X5308333Y-15804524D01*
X5317857Y-15795000D01*
X5336905Y-15785476D01*
X5527381Y-15785476D02*
X5546429Y-15785476D01*
X5565476Y-15795000D01*
X5575000Y-15804524D01*
X5584524Y-15823571D01*
X5594048Y-15861667D01*
X5594048Y-15909286D01*
X5584524Y-15947381D01*
X5575000Y-15966428D01*
X5565476Y-15975952D01*
X5546429Y-15985476D01*
X5527381Y-15985476D01*
X5508333Y-15975952D01*
X5498810Y-15966428D01*
X5489286Y-15947381D01*
X5479762Y-15909286D01*
X5479762Y-15861667D01*
X5489286Y-15823571D01*
X5498810Y-15804524D01*
X5508333Y-15795000D01*
X5527381Y-15785476D01*
X5679762Y-15985476D02*
X5679762Y-15852143D01*
X5679762Y-15871190D02*
X5689286Y-15861667D01*
X5708333Y-15852143D01*
X5736905Y-15852143D01*
X5755952Y-15861667D01*
X5765476Y-15880714D01*
X5765476Y-15985476D01*
X5765476Y-15880714D02*
X5775000Y-15861667D01*
X5794048Y-15852143D01*
X5822619Y-15852143D01*
X5841667Y-15861667D01*
X5851190Y-15880714D01*
X5851190Y-15985476D01*
X5946428Y-15985476D02*
X5946428Y-15852143D01*
X5946428Y-15871190D02*
X5955952Y-15861667D01*
X5975000Y-15852143D01*
X6003571Y-15852143D01*
X6022619Y-15861667D01*
X6032143Y-15880714D01*
X6032143Y-15985476D01*
X6032143Y-15880714D02*
X6041667Y-15861667D01*
X6060714Y-15852143D01*
X6089286Y-15852143D01*
X6108333Y-15861667D01*
X6117857Y-15880714D01*
X6117857Y-15985476D01*
X6508333Y-15775952D02*
X6336905Y-16033095D01*
X6765476Y-15785476D02*
X6784524Y-15785476D01*
X6803571Y-15795000D01*
X6813095Y-15804524D01*
X6822619Y-15823571D01*
X6832143Y-15861667D01*
X6832143Y-15909286D01*
X6822619Y-15947381D01*
X6813095Y-15966428D01*
X6803571Y-15975952D01*
X6784524Y-15985476D01*
X6765476Y-15985476D01*
X6746428Y-15975952D01*
X6736905Y-15966428D01*
X6727381Y-15947381D01*
X6717857Y-15909286D01*
X6717857Y-15861667D01*
X6727381Y-15823571D01*
X6736905Y-15804524D01*
X6746428Y-15795000D01*
X6765476Y-15785476D01*
X6917857Y-15966428D02*
X6927381Y-15975952D01*
X6917857Y-15985476D01*
X6908333Y-15975952D01*
X6917857Y-15966428D01*
X6917857Y-15985476D01*
X7051190Y-15785476D02*
X7070238Y-15785476D01*
X7089286Y-15795000D01*
X7098809Y-15804524D01*
X7108333Y-15823571D01*
X7117857Y-15861667D01*
X7117857Y-15909286D01*
X7108333Y-15947381D01*
X7098809Y-15966428D01*
X7089286Y-15975952D01*
X7070238Y-15985476D01*
X7051190Y-15985476D01*
X7032143Y-15975952D01*
X7022619Y-15966428D01*
X7013095Y-15947381D01*
X7003571Y-15909286D01*
X7003571Y-15861667D01*
X7013095Y-15823571D01*
X7022619Y-15804524D01*
X7032143Y-15795000D01*
X7051190Y-15785476D01*
X7308333Y-15985476D02*
X7194048Y-15985476D01*
X7251190Y-15985476D02*
X7251190Y-15785476D01*
X7232143Y-15814048D01*
X7213095Y-15833095D01*
X7194048Y-15842619D01*
X7489286Y-15785476D02*
X7394048Y-15785476D01*
X7384524Y-15880714D01*
X7394048Y-15871190D01*
X7413095Y-15861667D01*
X7460714Y-15861667D01*
X7479762Y-15871190D01*
X7489286Y-15880714D01*
X7498809Y-15899762D01*
X7498809Y-15947381D01*
X7489286Y-15966428D01*
X7479762Y-15975952D01*
X7460714Y-15985476D01*
X7413095Y-15985476D01*
X7394048Y-15975952D01*
X7384524Y-15966428D01*
X7565476Y-15785476D02*
X7698809Y-15785476D01*
X7613095Y-15985476D01*
X7765476Y-15785476D02*
X7765476Y-15823571D01*
X7841667Y-15785476D02*
X7841667Y-15823571D01*
X8136905Y-16061667D02*
X8127381Y-16052143D01*
X8108333Y-16023571D01*
X8098809Y-16004524D01*
X8089286Y-15975952D01*
X8079762Y-15928333D01*
X8079762Y-15890238D01*
X8089286Y-15842619D01*
X8098809Y-15814048D01*
X8108333Y-15795000D01*
X8127381Y-15766428D01*
X8136905Y-15756905D01*
X8308333Y-15785476D02*
X8213095Y-15785476D01*
X8203571Y-15880714D01*
X8213095Y-15871190D01*
X8232143Y-15861667D01*
X8279762Y-15861667D01*
X8298809Y-15871190D01*
X8308333Y-15880714D01*
X8317857Y-15899762D01*
X8317857Y-15947381D01*
X8308333Y-15966428D01*
X8298809Y-15975952D01*
X8279762Y-15985476D01*
X8232143Y-15985476D01*
X8213095Y-15975952D01*
X8203571Y-15966428D01*
X8508333Y-15985476D02*
X8394048Y-15985476D01*
X8451190Y-15985476D02*
X8451190Y-15785476D01*
X8432143Y-15814048D01*
X8413095Y-15833095D01*
X8394048Y-15842619D01*
X8746429Y-15985476D02*
X8746429Y-15785476D01*
X8832143Y-15985476D02*
X8832143Y-15880714D01*
X8822619Y-15861667D01*
X8803571Y-15852143D01*
X8775000Y-15852143D01*
X8755952Y-15861667D01*
X8746429Y-15871190D01*
X8955952Y-15985476D02*
X8936905Y-15975952D01*
X8927381Y-15966428D01*
X8917857Y-15947381D01*
X8917857Y-15890238D01*
X8927381Y-15871190D01*
X8936905Y-15861667D01*
X8955952Y-15852143D01*
X8984524Y-15852143D01*
X9003571Y-15861667D01*
X9013095Y-15871190D01*
X9022619Y-15890238D01*
X9022619Y-15947381D01*
X9013095Y-15966428D01*
X9003571Y-15975952D01*
X8984524Y-15985476D01*
X8955952Y-15985476D01*
X9136905Y-15985476D02*
X9117857Y-15975952D01*
X9108333Y-15956905D01*
X9108333Y-15785476D01*
X9289286Y-15975952D02*
X9270238Y-15985476D01*
X9232143Y-15985476D01*
X9213095Y-15975952D01*
X9203571Y-15956905D01*
X9203571Y-15880714D01*
X9213095Y-15861667D01*
X9232143Y-15852143D01*
X9270238Y-15852143D01*
X9289286Y-15861667D01*
X9298810Y-15880714D01*
X9298810Y-15899762D01*
X9203571Y-15918809D01*
X9375000Y-15975952D02*
X9394048Y-15985476D01*
X9432143Y-15985476D01*
X9451190Y-15975952D01*
X9460714Y-15956905D01*
X9460714Y-15947381D01*
X9451190Y-15928333D01*
X9432143Y-15918809D01*
X9403571Y-15918809D01*
X9384524Y-15909286D01*
X9375000Y-15890238D01*
X9375000Y-15880714D01*
X9384524Y-15861667D01*
X9403571Y-15852143D01*
X9432143Y-15852143D01*
X9451190Y-15861667D01*
X9527381Y-16061667D02*
X9536905Y-16052143D01*
X9555952Y-16023571D01*
X9565476Y-16004524D01*
X9575000Y-15975952D01*
X9584524Y-15928333D01*
X9584524Y-15890238D01*
X9575000Y-15842619D01*
X9565476Y-15814048D01*
X9555952Y-15795000D01*
X9536905Y-15766428D01*
X9527381Y-15756905D01*
D13*
X4565000Y-16159000D02*
G75*
G03*
X4565000Y-16159000I-50000J0D01*
G01*
D11*
X4927381Y-16249476D02*
X4813095Y-16249476D01*
X4870238Y-16249476D02*
X4870238Y-16049476D01*
X4851190Y-16078048D01*
X4832143Y-16097095D01*
X4813095Y-16106619D01*
X5013095Y-16230428D02*
X5022619Y-16239952D01*
X5013095Y-16249476D01*
X5003571Y-16239952D01*
X5013095Y-16230428D01*
X5013095Y-16249476D01*
X5146429Y-16049476D02*
X5165476Y-16049476D01*
X5184524Y-16059000D01*
X5194048Y-16068524D01*
X5203571Y-16087571D01*
X5213095Y-16125667D01*
X5213095Y-16173286D01*
X5203571Y-16211381D01*
X5194048Y-16230428D01*
X5184524Y-16239952D01*
X5165476Y-16249476D01*
X5146429Y-16249476D01*
X5127381Y-16239952D01*
X5117857Y-16230428D01*
X5108333Y-16211381D01*
X5098810Y-16173286D01*
X5098810Y-16125667D01*
X5108333Y-16087571D01*
X5117857Y-16068524D01*
X5127381Y-16059000D01*
X5146429Y-16049476D01*
X5336905Y-16049476D02*
X5355952Y-16049476D01*
X5375000Y-16059000D01*
X5384524Y-16068524D01*
X5394048Y-16087571D01*
X5403571Y-16125667D01*
X5403571Y-16173286D01*
X5394048Y-16211381D01*
X5384524Y-16230428D01*
X5375000Y-16239952D01*
X5355952Y-16249476D01*
X5336905Y-16249476D01*
X5317857Y-16239952D01*
X5308333Y-16230428D01*
X5298810Y-16211381D01*
X5289286Y-16173286D01*
X5289286Y-16125667D01*
X5298810Y-16087571D01*
X5308333Y-16068524D01*
X5317857Y-16059000D01*
X5336905Y-16049476D01*
X5527381Y-16049476D02*
X5546429Y-16049476D01*
X5565476Y-16059000D01*
X5575000Y-16068524D01*
X5584524Y-16087571D01*
X5594048Y-16125667D01*
X5594048Y-16173286D01*
X5584524Y-16211381D01*
X5575000Y-16230428D01*
X5565476Y-16239952D01*
X5546429Y-16249476D01*
X5527381Y-16249476D01*
X5508333Y-16239952D01*
X5498810Y-16230428D01*
X5489286Y-16211381D01*
X5479762Y-16173286D01*
X5479762Y-16125667D01*
X5489286Y-16087571D01*
X5498810Y-16068524D01*
X5508333Y-16059000D01*
X5527381Y-16049476D01*
X5679762Y-16249476D02*
X5679762Y-16116143D01*
X5679762Y-16135190D02*
X5689286Y-16125667D01*
X5708333Y-16116143D01*
X5736905Y-16116143D01*
X5755952Y-16125667D01*
X5765476Y-16144714D01*
X5765476Y-16249476D01*
X5765476Y-16144714D02*
X5775000Y-16125667D01*
X5794048Y-16116143D01*
X5822619Y-16116143D01*
X5841667Y-16125667D01*
X5851190Y-16144714D01*
X5851190Y-16249476D01*
X5946428Y-16249476D02*
X5946428Y-16116143D01*
X5946428Y-16135190D02*
X5955952Y-16125667D01*
X5975000Y-16116143D01*
X6003571Y-16116143D01*
X6022619Y-16125667D01*
X6032143Y-16144714D01*
X6032143Y-16249476D01*
X6032143Y-16144714D02*
X6041667Y-16125667D01*
X6060714Y-16116143D01*
X6089286Y-16116143D01*
X6108333Y-16125667D01*
X6117857Y-16144714D01*
X6117857Y-16249476D01*
X6508333Y-16039952D02*
X6336905Y-16297095D01*
X6765476Y-16049476D02*
X6784524Y-16049476D01*
X6803571Y-16059000D01*
X6813095Y-16068524D01*
X6822619Y-16087571D01*
X6832143Y-16125667D01*
X6832143Y-16173286D01*
X6822619Y-16211381D01*
X6813095Y-16230428D01*
X6803571Y-16239952D01*
X6784524Y-16249476D01*
X6765476Y-16249476D01*
X6746428Y-16239952D01*
X6736905Y-16230428D01*
X6727381Y-16211381D01*
X6717857Y-16173286D01*
X6717857Y-16125667D01*
X6727381Y-16087571D01*
X6736905Y-16068524D01*
X6746428Y-16059000D01*
X6765476Y-16049476D01*
X6917857Y-16230428D02*
X6927381Y-16239952D01*
X6917857Y-16249476D01*
X6908333Y-16239952D01*
X6917857Y-16230428D01*
X6917857Y-16249476D01*
X7051190Y-16049476D02*
X7070238Y-16049476D01*
X7089286Y-16059000D01*
X7098809Y-16068524D01*
X7108333Y-16087571D01*
X7117857Y-16125667D01*
X7117857Y-16173286D01*
X7108333Y-16211381D01*
X7098809Y-16230428D01*
X7089286Y-16239952D01*
X7070238Y-16249476D01*
X7051190Y-16249476D01*
X7032143Y-16239952D01*
X7022619Y-16230428D01*
X7013095Y-16211381D01*
X7003571Y-16173286D01*
X7003571Y-16125667D01*
X7013095Y-16087571D01*
X7022619Y-16068524D01*
X7032143Y-16059000D01*
X7051190Y-16049476D01*
X7184524Y-16049476D02*
X7308333Y-16049476D01*
X7241667Y-16125667D01*
X7270238Y-16125667D01*
X7289286Y-16135190D01*
X7298809Y-16144714D01*
X7308333Y-16163762D01*
X7308333Y-16211381D01*
X7298809Y-16230428D01*
X7289286Y-16239952D01*
X7270238Y-16249476D01*
X7213095Y-16249476D01*
X7194048Y-16239952D01*
X7184524Y-16230428D01*
X7403571Y-16249476D02*
X7441667Y-16249476D01*
X7460714Y-16239952D01*
X7470238Y-16230428D01*
X7489286Y-16201857D01*
X7498809Y-16163762D01*
X7498809Y-16087571D01*
X7489286Y-16068524D01*
X7479762Y-16059000D01*
X7460714Y-16049476D01*
X7422619Y-16049476D01*
X7403571Y-16059000D01*
X7394048Y-16068524D01*
X7384524Y-16087571D01*
X7384524Y-16135190D01*
X7394048Y-16154238D01*
X7403571Y-16163762D01*
X7422619Y-16173286D01*
X7460714Y-16173286D01*
X7479762Y-16163762D01*
X7489286Y-16154238D01*
X7498809Y-16135190D01*
X7670238Y-16116143D02*
X7670238Y-16249476D01*
X7622619Y-16039952D02*
X7575000Y-16182809D01*
X7698809Y-16182809D01*
X7765476Y-16049476D02*
X7765476Y-16087571D01*
X7841667Y-16049476D02*
X7841667Y-16087571D01*
X8136905Y-16325667D02*
X8127381Y-16316143D01*
X8108333Y-16287571D01*
X8098809Y-16268524D01*
X8089286Y-16239952D01*
X8079762Y-16192333D01*
X8079762Y-16154238D01*
X8089286Y-16106619D01*
X8098809Y-16078048D01*
X8108333Y-16059000D01*
X8127381Y-16030428D01*
X8136905Y-16020905D01*
X8194048Y-16049476D02*
X8327381Y-16049476D01*
X8241667Y-16249476D01*
X8555952Y-16249476D02*
X8555952Y-16049476D01*
X8641667Y-16249476D02*
X8641667Y-16144714D01*
X8632143Y-16125667D01*
X8613095Y-16116143D01*
X8584524Y-16116143D01*
X8565476Y-16125667D01*
X8555952Y-16135190D01*
X8765476Y-16249476D02*
X8746429Y-16239952D01*
X8736905Y-16230428D01*
X8727381Y-16211381D01*
X8727381Y-16154238D01*
X8736905Y-16135190D01*
X8746429Y-16125667D01*
X8765476Y-16116143D01*
X8794048Y-16116143D01*
X8813095Y-16125667D01*
X8822619Y-16135190D01*
X8832143Y-16154238D01*
X8832143Y-16211381D01*
X8822619Y-16230428D01*
X8813095Y-16239952D01*
X8794048Y-16249476D01*
X8765476Y-16249476D01*
X8946429Y-16249476D02*
X8927381Y-16239952D01*
X8917857Y-16220905D01*
X8917857Y-16049476D01*
X9098810Y-16239952D02*
X9079762Y-16249476D01*
X9041667Y-16249476D01*
X9022619Y-16239952D01*
X9013095Y-16220905D01*
X9013095Y-16144714D01*
X9022619Y-16125667D01*
X9041667Y-16116143D01*
X9079762Y-16116143D01*
X9098810Y-16125667D01*
X9108333Y-16144714D01*
X9108333Y-16163762D01*
X9013095Y-16182809D01*
X9184524Y-16239952D02*
X9203571Y-16249476D01*
X9241667Y-16249476D01*
X9260714Y-16239952D01*
X9270238Y-16220905D01*
X9270238Y-16211381D01*
X9260714Y-16192333D01*
X9241667Y-16182809D01*
X9213095Y-16182809D01*
X9194048Y-16173286D01*
X9184524Y-16154238D01*
X9184524Y-16144714D01*
X9194048Y-16125667D01*
X9213095Y-16116143D01*
X9241667Y-16116143D01*
X9260714Y-16125667D01*
X9336905Y-16325667D02*
X9346429Y-16316143D01*
X9365476Y-16287571D01*
X9375000Y-16268524D01*
X9384524Y-16239952D01*
X9394048Y-16192333D01*
X9394048Y-16154238D01*
X9384524Y-16106619D01*
X9375000Y-16078048D01*
X9365476Y-16059000D01*
X9346429Y-16030428D01*
X9336905Y-16020905D01*
D14*
X4490000Y-16348000D02*
X4490000Y-16498000D01*
X4415000Y-16423000D02*
X4565000Y-16423000D01*
D11*
X4927381Y-16513476D02*
X4813095Y-16513476D01*
X4870238Y-16513476D02*
X4870238Y-16313476D01*
X4851190Y-16342048D01*
X4832143Y-16361095D01*
X4813095Y-16370619D01*
X5013095Y-16494428D02*
X5022619Y-16503952D01*
X5013095Y-16513476D01*
X5003571Y-16503952D01*
X5013095Y-16494428D01*
X5013095Y-16513476D01*
X5203571Y-16313476D02*
X5108333Y-16313476D01*
X5098810Y-16408714D01*
X5108333Y-16399190D01*
X5127381Y-16389667D01*
X5175000Y-16389667D01*
X5194048Y-16399190D01*
X5203571Y-16408714D01*
X5213095Y-16427762D01*
X5213095Y-16475381D01*
X5203571Y-16494428D01*
X5194048Y-16503952D01*
X5175000Y-16513476D01*
X5127381Y-16513476D01*
X5108333Y-16503952D01*
X5098810Y-16494428D01*
X5336905Y-16313476D02*
X5355952Y-16313476D01*
X5375000Y-16323000D01*
X5384524Y-16332524D01*
X5394048Y-16351571D01*
X5403571Y-16389667D01*
X5403571Y-16437286D01*
X5394048Y-16475381D01*
X5384524Y-16494428D01*
X5375000Y-16503952D01*
X5355952Y-16513476D01*
X5336905Y-16513476D01*
X5317857Y-16503952D01*
X5308333Y-16494428D01*
X5298810Y-16475381D01*
X5289286Y-16437286D01*
X5289286Y-16389667D01*
X5298810Y-16351571D01*
X5308333Y-16332524D01*
X5317857Y-16323000D01*
X5336905Y-16313476D01*
X5527381Y-16313476D02*
X5546429Y-16313476D01*
X5565476Y-16323000D01*
X5575000Y-16332524D01*
X5584524Y-16351571D01*
X5594048Y-16389667D01*
X5594048Y-16437286D01*
X5584524Y-16475381D01*
X5575000Y-16494428D01*
X5565476Y-16503952D01*
X5546429Y-16513476D01*
X5527381Y-16513476D01*
X5508333Y-16503952D01*
X5498810Y-16494428D01*
X5489286Y-16475381D01*
X5479762Y-16437286D01*
X5479762Y-16389667D01*
X5489286Y-16351571D01*
X5498810Y-16332524D01*
X5508333Y-16323000D01*
X5527381Y-16313476D01*
X5679762Y-16513476D02*
X5679762Y-16380143D01*
X5679762Y-16399190D02*
X5689286Y-16389667D01*
X5708333Y-16380143D01*
X5736905Y-16380143D01*
X5755952Y-16389667D01*
X5765476Y-16408714D01*
X5765476Y-16513476D01*
X5765476Y-16408714D02*
X5775000Y-16389667D01*
X5794048Y-16380143D01*
X5822619Y-16380143D01*
X5841667Y-16389667D01*
X5851190Y-16408714D01*
X5851190Y-16513476D01*
X5946428Y-16513476D02*
X5946428Y-16380143D01*
X5946428Y-16399190D02*
X5955952Y-16389667D01*
X5975000Y-16380143D01*
X6003571Y-16380143D01*
X6022619Y-16389667D01*
X6032143Y-16408714D01*
X6032143Y-16513476D01*
X6032143Y-16408714D02*
X6041667Y-16389667D01*
X6060714Y-16380143D01*
X6089286Y-16380143D01*
X6108333Y-16389667D01*
X6117857Y-16408714D01*
X6117857Y-16513476D01*
X6508333Y-16303952D02*
X6336905Y-16561095D01*
X6765476Y-16313476D02*
X6784524Y-16313476D01*
X6803571Y-16323000D01*
X6813095Y-16332524D01*
X6822619Y-16351571D01*
X6832143Y-16389667D01*
X6832143Y-16437286D01*
X6822619Y-16475381D01*
X6813095Y-16494428D01*
X6803571Y-16503952D01*
X6784524Y-16513476D01*
X6765476Y-16513476D01*
X6746428Y-16503952D01*
X6736905Y-16494428D01*
X6727381Y-16475381D01*
X6717857Y-16437286D01*
X6717857Y-16389667D01*
X6727381Y-16351571D01*
X6736905Y-16332524D01*
X6746428Y-16323000D01*
X6765476Y-16313476D01*
X6917857Y-16494428D02*
X6927381Y-16503952D01*
X6917857Y-16513476D01*
X6908333Y-16503952D01*
X6917857Y-16494428D01*
X6917857Y-16513476D01*
X7051190Y-16313476D02*
X7070238Y-16313476D01*
X7089286Y-16323000D01*
X7098809Y-16332524D01*
X7108333Y-16351571D01*
X7117857Y-16389667D01*
X7117857Y-16437286D01*
X7108333Y-16475381D01*
X7098809Y-16494428D01*
X7089286Y-16503952D01*
X7070238Y-16513476D01*
X7051190Y-16513476D01*
X7032143Y-16503952D01*
X7022619Y-16494428D01*
X7013095Y-16475381D01*
X7003571Y-16437286D01*
X7003571Y-16389667D01*
X7013095Y-16351571D01*
X7022619Y-16332524D01*
X7032143Y-16323000D01*
X7051190Y-16313476D01*
X7298809Y-16313476D02*
X7203571Y-16313476D01*
X7194048Y-16408714D01*
X7203571Y-16399190D01*
X7222619Y-16389667D01*
X7270238Y-16389667D01*
X7289286Y-16399190D01*
X7298809Y-16408714D01*
X7308333Y-16427762D01*
X7308333Y-16475381D01*
X7298809Y-16494428D01*
X7289286Y-16503952D01*
X7270238Y-16513476D01*
X7222619Y-16513476D01*
X7203571Y-16503952D01*
X7194048Y-16494428D01*
X7403571Y-16513476D02*
X7441667Y-16513476D01*
X7460714Y-16503952D01*
X7470238Y-16494428D01*
X7489286Y-16465857D01*
X7498809Y-16427762D01*
X7498809Y-16351571D01*
X7489286Y-16332524D01*
X7479762Y-16323000D01*
X7460714Y-16313476D01*
X7422619Y-16313476D01*
X7403571Y-16323000D01*
X7394048Y-16332524D01*
X7384524Y-16351571D01*
X7384524Y-16399190D01*
X7394048Y-16418238D01*
X7403571Y-16427762D01*
X7422619Y-16437286D01*
X7460714Y-16437286D01*
X7479762Y-16427762D01*
X7489286Y-16418238D01*
X7498809Y-16399190D01*
X7689286Y-16513476D02*
X7575000Y-16513476D01*
X7632143Y-16513476D02*
X7632143Y-16313476D01*
X7613095Y-16342048D01*
X7594048Y-16361095D01*
X7575000Y-16370619D01*
X7765476Y-16313476D02*
X7765476Y-16351571D01*
X7841667Y-16313476D02*
X7841667Y-16351571D01*
X8136905Y-16589667D02*
X8127381Y-16580143D01*
X8108333Y-16551571D01*
X8098809Y-16532524D01*
X8089286Y-16503952D01*
X8079762Y-16456333D01*
X8079762Y-16418238D01*
X8089286Y-16370619D01*
X8098809Y-16342048D01*
X8108333Y-16323000D01*
X8127381Y-16294428D01*
X8136905Y-16284905D01*
X8203571Y-16332524D02*
X8213095Y-16323000D01*
X8232143Y-16313476D01*
X8279762Y-16313476D01*
X8298809Y-16323000D01*
X8308333Y-16332524D01*
X8317857Y-16351571D01*
X8317857Y-16370619D01*
X8308333Y-16399190D01*
X8194048Y-16513476D01*
X8317857Y-16513476D01*
X8555952Y-16513476D02*
X8555952Y-16313476D01*
X8641667Y-16513476D02*
X8641667Y-16408714D01*
X8632143Y-16389667D01*
X8613095Y-16380143D01*
X8584524Y-16380143D01*
X8565476Y-16389667D01*
X8555952Y-16399190D01*
X8765476Y-16513476D02*
X8746429Y-16503952D01*
X8736905Y-16494428D01*
X8727381Y-16475381D01*
X8727381Y-16418238D01*
X8736905Y-16399190D01*
X8746429Y-16389667D01*
X8765476Y-16380143D01*
X8794048Y-16380143D01*
X8813095Y-16389667D01*
X8822619Y-16399190D01*
X8832143Y-16418238D01*
X8832143Y-16475381D01*
X8822619Y-16494428D01*
X8813095Y-16503952D01*
X8794048Y-16513476D01*
X8765476Y-16513476D01*
X8946429Y-16513476D02*
X8927381Y-16503952D01*
X8917857Y-16484905D01*
X8917857Y-16313476D01*
X9098810Y-16503952D02*
X9079762Y-16513476D01*
X9041667Y-16513476D01*
X9022619Y-16503952D01*
X9013095Y-16484905D01*
X9013095Y-16408714D01*
X9022619Y-16389667D01*
X9041667Y-16380143D01*
X9079762Y-16380143D01*
X9098810Y-16389667D01*
X9108333Y-16408714D01*
X9108333Y-16427762D01*
X9013095Y-16446809D01*
X9184524Y-16503952D02*
X9203571Y-16513476D01*
X9241667Y-16513476D01*
X9260714Y-16503952D01*
X9270238Y-16484905D01*
X9270238Y-16475381D01*
X9260714Y-16456333D01*
X9241667Y-16446809D01*
X9213095Y-16446809D01*
X9194048Y-16437286D01*
X9184524Y-16418238D01*
X9184524Y-16408714D01*
X9194048Y-16389667D01*
X9213095Y-16380143D01*
X9241667Y-16380143D01*
X9260714Y-16389667D01*
X9336905Y-16589667D02*
X9346429Y-16580143D01*
X9365476Y-16551571D01*
X9375000Y-16532524D01*
X9384524Y-16503952D01*
X9394048Y-16456333D01*
X9394048Y-16418238D01*
X9384524Y-16370619D01*
X9375000Y-16342048D01*
X9365476Y-16323000D01*
X9346429Y-16294428D01*
X9336905Y-16284905D01*
D15*
X4540105Y-16753105D02*
X4540105Y-16632895D01*
X4419895Y-16632895D01*
X4419895Y-16753105D01*
X4540105Y-16753105D01*
D11*
X4927381Y-16783476D02*
X4813095Y-16783476D01*
X4870238Y-16783476D02*
X4870238Y-16583476D01*
X4851190Y-16612048D01*
X4832143Y-16631095D01*
X4813095Y-16640619D01*
X5013095Y-16764428D02*
X5022619Y-16773952D01*
X5013095Y-16783476D01*
X5003571Y-16773952D01*
X5013095Y-16764428D01*
X5013095Y-16783476D01*
X5089286Y-16583476D02*
X5222619Y-16583476D01*
X5136905Y-16783476D01*
X5336905Y-16583476D02*
X5355952Y-16583476D01*
X5375000Y-16593000D01*
X5384524Y-16602524D01*
X5394048Y-16621571D01*
X5403571Y-16659667D01*
X5403571Y-16707286D01*
X5394048Y-16745381D01*
X5384524Y-16764428D01*
X5375000Y-16773952D01*
X5355952Y-16783476D01*
X5336905Y-16783476D01*
X5317857Y-16773952D01*
X5308333Y-16764428D01*
X5298810Y-16745381D01*
X5289286Y-16707286D01*
X5289286Y-16659667D01*
X5298810Y-16621571D01*
X5308333Y-16602524D01*
X5317857Y-16593000D01*
X5336905Y-16583476D01*
X5527381Y-16583476D02*
X5546429Y-16583476D01*
X5565476Y-16593000D01*
X5575000Y-16602524D01*
X5584524Y-16621571D01*
X5594048Y-16659667D01*
X5594048Y-16707286D01*
X5584524Y-16745381D01*
X5575000Y-16764428D01*
X5565476Y-16773952D01*
X5546429Y-16783476D01*
X5527381Y-16783476D01*
X5508333Y-16773952D01*
X5498810Y-16764428D01*
X5489286Y-16745381D01*
X5479762Y-16707286D01*
X5479762Y-16659667D01*
X5489286Y-16621571D01*
X5498810Y-16602524D01*
X5508333Y-16593000D01*
X5527381Y-16583476D01*
X5679762Y-16783476D02*
X5679762Y-16650143D01*
X5679762Y-16669190D02*
X5689286Y-16659667D01*
X5708333Y-16650143D01*
X5736905Y-16650143D01*
X5755952Y-16659667D01*
X5765476Y-16678714D01*
X5765476Y-16783476D01*
X5765476Y-16678714D02*
X5775000Y-16659667D01*
X5794048Y-16650143D01*
X5822619Y-16650143D01*
X5841667Y-16659667D01*
X5851190Y-16678714D01*
X5851190Y-16783476D01*
X5946428Y-16783476D02*
X5946428Y-16650143D01*
X5946428Y-16669190D02*
X5955952Y-16659667D01*
X5975000Y-16650143D01*
X6003571Y-16650143D01*
X6022619Y-16659667D01*
X6032143Y-16678714D01*
X6032143Y-16783476D01*
X6032143Y-16678714D02*
X6041667Y-16659667D01*
X6060714Y-16650143D01*
X6089286Y-16650143D01*
X6108333Y-16659667D01*
X6117857Y-16678714D01*
X6117857Y-16783476D01*
X6508333Y-16573952D02*
X6336905Y-16831095D01*
X6765476Y-16583476D02*
X6784524Y-16583476D01*
X6803571Y-16593000D01*
X6813095Y-16602524D01*
X6822619Y-16621571D01*
X6832143Y-16659667D01*
X6832143Y-16707286D01*
X6822619Y-16745381D01*
X6813095Y-16764428D01*
X6803571Y-16773952D01*
X6784524Y-16783476D01*
X6765476Y-16783476D01*
X6746428Y-16773952D01*
X6736905Y-16764428D01*
X6727381Y-16745381D01*
X6717857Y-16707286D01*
X6717857Y-16659667D01*
X6727381Y-16621571D01*
X6736905Y-16602524D01*
X6746428Y-16593000D01*
X6765476Y-16583476D01*
X6917857Y-16764428D02*
X6927381Y-16773952D01*
X6917857Y-16783476D01*
X6908333Y-16773952D01*
X6917857Y-16764428D01*
X6917857Y-16783476D01*
X7051190Y-16583476D02*
X7070238Y-16583476D01*
X7089286Y-16593000D01*
X7098809Y-16602524D01*
X7108333Y-16621571D01*
X7117857Y-16659667D01*
X7117857Y-16707286D01*
X7108333Y-16745381D01*
X7098809Y-16764428D01*
X7089286Y-16773952D01*
X7070238Y-16783476D01*
X7051190Y-16783476D01*
X7032143Y-16773952D01*
X7022619Y-16764428D01*
X7013095Y-16745381D01*
X7003571Y-16707286D01*
X7003571Y-16659667D01*
X7013095Y-16621571D01*
X7022619Y-16602524D01*
X7032143Y-16593000D01*
X7051190Y-16583476D01*
X7289286Y-16583476D02*
X7251190Y-16583476D01*
X7232143Y-16593000D01*
X7222619Y-16602524D01*
X7203571Y-16631095D01*
X7194048Y-16669190D01*
X7194048Y-16745381D01*
X7203571Y-16764428D01*
X7213095Y-16773952D01*
X7232143Y-16783476D01*
X7270238Y-16783476D01*
X7289286Y-16773952D01*
X7298809Y-16764428D01*
X7308333Y-16745381D01*
X7308333Y-16697762D01*
X7298809Y-16678714D01*
X7289286Y-16669190D01*
X7270238Y-16659667D01*
X7232143Y-16659667D01*
X7213095Y-16669190D01*
X7203571Y-16678714D01*
X7194048Y-16697762D01*
X7479762Y-16583476D02*
X7441667Y-16583476D01*
X7422619Y-16593000D01*
X7413095Y-16602524D01*
X7394048Y-16631095D01*
X7384524Y-16669190D01*
X7384524Y-16745381D01*
X7394048Y-16764428D01*
X7403571Y-16773952D01*
X7422619Y-16783476D01*
X7460714Y-16783476D01*
X7479762Y-16773952D01*
X7489286Y-16764428D01*
X7498809Y-16745381D01*
X7498809Y-16697762D01*
X7489286Y-16678714D01*
X7479762Y-16669190D01*
X7460714Y-16659667D01*
X7422619Y-16659667D01*
X7403571Y-16669190D01*
X7394048Y-16678714D01*
X7384524Y-16697762D01*
X7594048Y-16783476D02*
X7632143Y-16783476D01*
X7651190Y-16773952D01*
X7660714Y-16764428D01*
X7679762Y-16735857D01*
X7689286Y-16697762D01*
X7689286Y-16621571D01*
X7679762Y-16602524D01*
X7670238Y-16593000D01*
X7651190Y-16583476D01*
X7613095Y-16583476D01*
X7594048Y-16593000D01*
X7584524Y-16602524D01*
X7575000Y-16621571D01*
X7575000Y-16669190D01*
X7584524Y-16688238D01*
X7594048Y-16697762D01*
X7613095Y-16707286D01*
X7651190Y-16707286D01*
X7670238Y-16697762D01*
X7679762Y-16688238D01*
X7689286Y-16669190D01*
X7765476Y-16583476D02*
X7765476Y-16621571D01*
X7841667Y-16583476D02*
X7841667Y-16621571D01*
X8136905Y-16859667D02*
X8127381Y-16850143D01*
X8108333Y-16821571D01*
X8098809Y-16802524D01*
X8089286Y-16773952D01*
X8079762Y-16726333D01*
X8079762Y-16688238D01*
X8089286Y-16640619D01*
X8098809Y-16612048D01*
X8108333Y-16593000D01*
X8127381Y-16564428D01*
X8136905Y-16554905D01*
X8241667Y-16669190D02*
X8222619Y-16659667D01*
X8213095Y-16650143D01*
X8203571Y-16631095D01*
X8203571Y-16621571D01*
X8213095Y-16602524D01*
X8222619Y-16593000D01*
X8241667Y-16583476D01*
X8279762Y-16583476D01*
X8298809Y-16593000D01*
X8308333Y-16602524D01*
X8317857Y-16621571D01*
X8317857Y-16631095D01*
X8308333Y-16650143D01*
X8298809Y-16659667D01*
X8279762Y-16669190D01*
X8241667Y-16669190D01*
X8222619Y-16678714D01*
X8213095Y-16688238D01*
X8203571Y-16707286D01*
X8203571Y-16745381D01*
X8213095Y-16764428D01*
X8222619Y-16773952D01*
X8241667Y-16783476D01*
X8279762Y-16783476D01*
X8298809Y-16773952D01*
X8308333Y-16764428D01*
X8317857Y-16745381D01*
X8317857Y-16707286D01*
X8308333Y-16688238D01*
X8298809Y-16678714D01*
X8279762Y-16669190D01*
X8555952Y-16783476D02*
X8555952Y-16583476D01*
X8641667Y-16783476D02*
X8641667Y-16678714D01*
X8632143Y-16659667D01*
X8613095Y-16650143D01*
X8584524Y-16650143D01*
X8565476Y-16659667D01*
X8555952Y-16669190D01*
X8765476Y-16783476D02*
X8746429Y-16773952D01*
X8736905Y-16764428D01*
X8727381Y-16745381D01*
X8727381Y-16688238D01*
X8736905Y-16669190D01*
X8746429Y-16659667D01*
X8765476Y-16650143D01*
X8794048Y-16650143D01*
X8813095Y-16659667D01*
X8822619Y-16669190D01*
X8832143Y-16688238D01*
X8832143Y-16745381D01*
X8822619Y-16764428D01*
X8813095Y-16773952D01*
X8794048Y-16783476D01*
X8765476Y-16783476D01*
X8946429Y-16783476D02*
X8927381Y-16773952D01*
X8917857Y-16754905D01*
X8917857Y-16583476D01*
X9098810Y-16773952D02*
X9079762Y-16783476D01*
X9041667Y-16783476D01*
X9022619Y-16773952D01*
X9013095Y-16754905D01*
X9013095Y-16678714D01*
X9022619Y-16659667D01*
X9041667Y-16650143D01*
X9079762Y-16650143D01*
X9098810Y-16659667D01*
X9108333Y-16678714D01*
X9108333Y-16697762D01*
X9013095Y-16716809D01*
X9184524Y-16773952D02*
X9203571Y-16783476D01*
X9241667Y-16783476D01*
X9260714Y-16773952D01*
X9270238Y-16754905D01*
X9270238Y-16745381D01*
X9260714Y-16726333D01*
X9241667Y-16716809D01*
X9213095Y-16716809D01*
X9194048Y-16707286D01*
X9184524Y-16688238D01*
X9184524Y-16678714D01*
X9194048Y-16659667D01*
X9213095Y-16650143D01*
X9241667Y-16650143D01*
X9260714Y-16659667D01*
X9336905Y-16859667D02*
X9346429Y-16850143D01*
X9365476Y-16821571D01*
X9375000Y-16802524D01*
X9384524Y-16773952D01*
X9394048Y-16726333D01*
X9394048Y-16688238D01*
X9384524Y-16640619D01*
X9375000Y-16612048D01*
X9365476Y-16593000D01*
X9346429Y-16564428D01*
X9336905Y-16554905D01*
M02*
