%TF.GenerationSoftware,KiCad,Pcbnew,(6.0.1)*%
%TF.CreationDate,2022-01-26T11:25:13+01:00*%
%TF.ProjectId,MUNIN 100,4d554e49-4e20-4313-9030-2e6b69636164,0*%
%TF.SameCoordinates,Original*%
%TF.FileFunction,Soldermask,Top*%
%TF.FilePolarity,Negative*%
%FSLAX46Y46*%
G04 Gerber Fmt 4.6, Leading zero omitted, Abs format (unit mm)*
G04 Created by KiCad (PCBNEW (6.0.1)) date 2022-01-26 11:25:13*
%MOMM*%
%LPD*%
G01*
G04 APERTURE LIST*
G04 Aperture macros list*
%AMRoundRect*
0 Rectangle with rounded corners*
0 $1 Rounding radius*
0 $2 $3 $4 $5 $6 $7 $8 $9 X,Y pos of 4 corners*
0 Add a 4 corners polygon primitive as box body*
4,1,4,$2,$3,$4,$5,$6,$7,$8,$9,$2,$3,0*
0 Add four circle primitives for the rounded corners*
1,1,$1+$1,$2,$3*
1,1,$1+$1,$4,$5*
1,1,$1+$1,$6,$7*
1,1,$1+$1,$8,$9*
0 Add four rect primitives between the rounded corners*
20,1,$1+$1,$2,$3,$4,$5,0*
20,1,$1+$1,$4,$5,$6,$7,0*
20,1,$1+$1,$6,$7,$8,$9,0*
20,1,$1+$1,$8,$9,$2,$3,0*%
G04 Aperture macros list end*
%ADD10C,2.050000*%
%ADD11C,2.250000*%
%ADD12O,3.500000X3.500000*%
%ADD13R,1.905000X4.000000*%
%ADD14RoundRect,0.250000X0.250000X0.475000X-0.250000X0.475000X-0.250000X-0.475000X0.250000X-0.475000X0*%
%ADD15RoundRect,0.250000X-0.450000X0.350000X-0.450000X-0.350000X0.450000X-0.350000X0.450000X0.350000X0*%
%ADD16R,1.500000X0.650000*%
%ADD17R,1.350000X1.800000*%
%ADD18RoundRect,0.250000X0.337500X0.475000X-0.337500X0.475000X-0.337500X-0.475000X0.337500X-0.475000X0*%
%ADD19RoundRect,0.250000X0.350000X-0.275000X0.350000X0.275000X-0.350000X0.275000X-0.350000X-0.275000X0*%
%ADD20RoundRect,0.250000X0.475000X-0.337500X0.475000X0.337500X-0.475000X0.337500X-0.475000X-0.337500X0*%
%ADD21RoundRect,0.250000X0.312500X1.450000X-0.312500X1.450000X-0.312500X-1.450000X0.312500X-1.450000X0*%
%ADD22RoundRect,0.250000X-0.412500X-1.100000X0.412500X-1.100000X0.412500X1.100000X-0.412500X1.100000X0*%
%ADD23RoundRect,0.250000X-0.475000X0.337500X-0.475000X-0.337500X0.475000X-0.337500X0.475000X0.337500X0*%
%ADD24RoundRect,0.250000X0.350000X0.450000X-0.350000X0.450000X-0.350000X-0.450000X0.350000X-0.450000X0*%
%ADD25RoundRect,0.150000X0.800000X0.150000X-0.800000X0.150000X-0.800000X-0.150000X0.800000X-0.150000X0*%
%ADD26RoundRect,0.250000X0.625000X-0.312500X0.625000X0.312500X-0.625000X0.312500X-0.625000X-0.312500X0*%
%ADD27RoundRect,0.250000X1.950000X1.000000X-1.950000X1.000000X-1.950000X-1.000000X1.950000X-1.000000X0*%
%ADD28R,2.540000X1.650000*%
%ADD29R,2.700000X1.500000*%
%ADD30RoundRect,0.250000X-1.100000X0.325000X-1.100000X-0.325000X1.100000X-0.325000X1.100000X0.325000X0*%
%ADD31C,3.200000*%
%ADD32RoundRect,0.243750X-0.243750X-0.456250X0.243750X-0.456250X0.243750X0.456250X-0.243750X0.456250X0*%
%ADD33RoundRect,0.249998X-3.650002X-4.550002X3.650002X-4.550002X3.650002X4.550002X-3.650002X4.550002X0*%
%ADD34RoundRect,0.250000X-1.075000X0.312500X-1.075000X-0.312500X1.075000X-0.312500X1.075000X0.312500X0*%
%ADD35RoundRect,0.250000X-1.450000X0.312500X-1.450000X-0.312500X1.450000X-0.312500X1.450000X0.312500X0*%
%ADD36RoundRect,0.250000X-0.250000X-0.475000X0.250000X-0.475000X0.250000X0.475000X-0.250000X0.475000X0*%
%ADD37RoundRect,0.250000X-0.625000X0.312500X-0.625000X-0.312500X0.625000X-0.312500X0.625000X0.312500X0*%
%ADD38RoundRect,0.250000X-0.337500X-0.475000X0.337500X-0.475000X0.337500X0.475000X-0.337500X0.475000X0*%
%ADD39R,1.700000X5.000000*%
%ADD40R,1.300000X1.300000*%
%ADD41R,1.300000X2.000000*%
%ADD42R,2.000000X1.300000*%
%ADD43RoundRect,0.218750X0.218750X0.256250X-0.218750X0.256250X-0.218750X-0.256250X0.218750X-0.256250X0*%
%ADD44RoundRect,1.500000X-2.000000X-1.500000X2.000000X-1.500000X2.000000X1.500000X-2.000000X1.500000X0*%
%ADD45R,4.600000X1.100000*%
%ADD46R,9.400000X10.800000*%
%ADD47RoundRect,0.250000X-0.350000X-0.450000X0.350000X-0.450000X0.350000X0.450000X-0.350000X0.450000X0*%
%ADD48RoundRect,0.150000X0.150000X-0.587500X0.150000X0.587500X-0.150000X0.587500X-0.150000X-0.587500X0*%
%ADD49RoundRect,0.250000X-0.275000X-0.350000X0.275000X-0.350000X0.275000X0.350000X-0.275000X0.350000X0*%
%ADD50RoundRect,0.250000X0.450000X-0.350000X0.450000X0.350000X-0.450000X0.350000X-0.450000X-0.350000X0*%
%ADD51RoundRect,0.250000X-1.425000X0.362500X-1.425000X-0.362500X1.425000X-0.362500X1.425000X0.362500X0*%
%ADD52RoundRect,0.381000X-1.619000X-0.381000X1.619000X-0.381000X1.619000X0.381000X-1.619000X0.381000X0*%
%ADD53RoundRect,0.250000X-0.350000X0.275000X-0.350000X-0.275000X0.350000X-0.275000X0.350000X0.275000X0*%
G04 APERTURE END LIST*
D10*
%TO.C,J2*%
X140700000Y-89300000D03*
D11*
X138160000Y-91840000D03*
X143240000Y-91840000D03*
X138160000Y-86760000D03*
X143240000Y-86760000D03*
%TD*%
D10*
%TO.C,J1*%
X50900000Y-89400000D03*
D11*
X53440000Y-86860000D03*
X48360000Y-86860000D03*
X53440000Y-91940000D03*
X48360000Y-91940000D03*
%TD*%
D12*
%TO.C,Q3*%
X82600000Y-124192500D03*
D13*
X85140000Y-107532500D03*
X82600000Y-107532500D03*
X80060000Y-107532500D03*
%TD*%
D12*
%TO.C,Q2*%
X82600000Y-83507500D03*
D13*
X80060000Y-100167500D03*
X82600000Y-100167500D03*
X85140000Y-100167500D03*
%TD*%
D14*
%TO.C,C1*%
X59950000Y-147200000D03*
X58050000Y-147200000D03*
%TD*%
D15*
%TO.C,R1*%
X59766200Y-108296200D03*
X59766200Y-110296200D03*
%TD*%
D16*
%TO.C,U2*%
X102800000Y-128505000D03*
X102800000Y-127235000D03*
X102800000Y-125965000D03*
X102800000Y-124695000D03*
X97400000Y-124695000D03*
X97400000Y-125965000D03*
X97400000Y-127235000D03*
X97400000Y-128505000D03*
D17*
X99425000Y-125700000D03*
X100775000Y-125700000D03*
X100775000Y-127500000D03*
X99425000Y-127500000D03*
%TD*%
D18*
%TO.C,C8*%
X64207300Y-112522000D03*
X62132300Y-112522000D03*
%TD*%
D19*
%TO.C,L1*%
X59900000Y-145350000D03*
X59900000Y-143050000D03*
%TD*%
D20*
%TO.C,C12*%
X63900000Y-141137500D03*
X63900000Y-139062500D03*
%TD*%
D21*
%TO.C,L4*%
X127664300Y-123317000D03*
X123389300Y-123317000D03*
%TD*%
D22*
%TO.C,C14*%
X101485300Y-113817400D03*
X104610300Y-113817400D03*
%TD*%
D23*
%TO.C,C7*%
X68199000Y-122152500D03*
X68199000Y-124227500D03*
%TD*%
D20*
%TO.C,C26*%
X109900000Y-131937500D03*
X109900000Y-129862500D03*
%TD*%
D22*
%TO.C,C15*%
X101917100Y-90220800D03*
X105042100Y-90220800D03*
%TD*%
D20*
%TO.C,C24*%
X95310800Y-133437500D03*
X95310800Y-131362500D03*
%TD*%
D22*
%TO.C,C17*%
X101485300Y-117373400D03*
X104610300Y-117373400D03*
%TD*%
D20*
%TO.C,C19*%
X129870200Y-124278300D03*
X129870200Y-122203300D03*
%TD*%
D24*
%TO.C,R7*%
X65600000Y-144900000D03*
X63600000Y-144900000D03*
%TD*%
D15*
%TO.C,R4*%
X62255400Y-108296200D03*
X62255400Y-110296200D03*
%TD*%
D25*
%TO.C,IC1*%
X119374800Y-134467600D03*
X119374800Y-133197600D03*
X119374800Y-131927600D03*
X119374800Y-130657600D03*
X112374800Y-130657600D03*
X112374800Y-131927600D03*
X112374800Y-133197600D03*
X112374800Y-134467600D03*
%TD*%
D26*
%TO.C,R18*%
X70942200Y-109945900D03*
X70942200Y-107020900D03*
%TD*%
D27*
%TO.C,C25*%
X119754100Y-123418600D03*
X111354100Y-123418600D03*
%TD*%
D28*
%TO.C,TR1*%
X53340000Y-104673400D03*
X53340000Y-102133400D03*
X53340000Y-99593400D03*
X48260000Y-99593400D03*
X48260000Y-102133400D03*
X48260000Y-104673400D03*
%TD*%
D29*
%TO.C,D1*%
X92500000Y-145200000D03*
X92500000Y-150000000D03*
%TD*%
D30*
%TO.C,C11*%
X88000000Y-102325000D03*
X88000000Y-105275000D03*
%TD*%
D31*
%TO.C,H3*%
X142163800Y-148793200D03*
%TD*%
D23*
%TO.C,C23*%
X124637800Y-141050100D03*
X124637800Y-143125100D03*
%TD*%
D32*
%TO.C,D3*%
X64086500Y-101498400D03*
X65961500Y-101498400D03*
%TD*%
D20*
%TO.C,C9*%
X67600000Y-136937500D03*
X67600000Y-134862500D03*
%TD*%
D33*
%TO.C,C21*%
X128029900Y-134620000D03*
X140529900Y-134620000D03*
%TD*%
D34*
%TO.C,R10*%
X123774200Y-115326700D03*
X123774200Y-118251700D03*
%TD*%
%TO.C,R12*%
X130378200Y-115275900D03*
X130378200Y-118200900D03*
%TD*%
D35*
%TO.C,L5*%
X75285600Y-101900900D03*
X75285600Y-106175900D03*
%TD*%
D36*
%TO.C,C27*%
X70551000Y-104902000D03*
X72451000Y-104902000D03*
%TD*%
D37*
%TO.C,R16*%
X70993000Y-97699100D03*
X70993000Y-100624100D03*
%TD*%
D38*
%TO.C,C5*%
X60049500Y-99390200D03*
X62124500Y-99390200D03*
%TD*%
D39*
%TO.C,J3*%
X102525000Y-140462500D03*
X99985000Y-140462500D03*
X97445000Y-140462500D03*
%TD*%
D40*
%TO.C,RV3*%
X97400000Y-133450000D03*
D41*
X102600000Y-132300000D03*
D40*
X97400000Y-131150000D03*
%TD*%
%TO.C,RV1*%
X60865400Y-120278200D03*
D42*
X59715400Y-115078200D03*
D40*
X58565400Y-120278200D03*
%TD*%
D24*
%TO.C,R15*%
X106500000Y-133900000D03*
X104500000Y-133900000D03*
%TD*%
D23*
%TO.C,C3*%
X57900000Y-143162500D03*
X57900000Y-145237500D03*
%TD*%
D31*
%TO.C,H4*%
X49326800Y-148742400D03*
%TD*%
D38*
%TO.C,C2*%
X57636500Y-112522000D03*
X59711500Y-112522000D03*
%TD*%
D43*
%TO.C,D2*%
X70408900Y-128041400D03*
X68833900Y-128041400D03*
%TD*%
D39*
%TO.C,J4*%
X119500000Y-140462500D03*
X116960000Y-140462500D03*
X114420000Y-140462500D03*
X111880000Y-140462500D03*
%TD*%
D20*
%TO.C,C20*%
X122600000Y-131737500D03*
X122600000Y-129662500D03*
%TD*%
D32*
%TO.C,D4*%
X64137300Y-107518200D03*
X66012300Y-107518200D03*
%TD*%
D44*
%TO.C,TLT2*%
X121081800Y-98729800D03*
X140639800Y-98729800D03*
X140639800Y-108635800D03*
X121081800Y-108889800D03*
%TD*%
D22*
%TO.C,C16*%
X101917100Y-93751400D03*
X105042100Y-93751400D03*
%TD*%
D18*
%TO.C,C10*%
X70537500Y-126200000D03*
X68462500Y-126200000D03*
%TD*%
D37*
%TO.C,R17*%
X68554600Y-97699100D03*
X68554600Y-100624100D03*
%TD*%
D45*
%TO.C,U1*%
X72325000Y-138560000D03*
X72325000Y-141100000D03*
D46*
X81475000Y-141100000D03*
D45*
X72325000Y-143640000D03*
%TD*%
D47*
%TO.C,R6*%
X64074800Y-105410000D03*
X66074800Y-105410000D03*
%TD*%
D48*
%TO.C,Q1*%
X58950000Y-140837500D03*
X60850000Y-140837500D03*
X59900000Y-138962500D03*
%TD*%
D49*
%TO.C,L6*%
X103350000Y-136000000D03*
X105650000Y-136000000D03*
%TD*%
D15*
%TO.C,R14*%
X105000000Y-128000000D03*
X105000000Y-130000000D03*
%TD*%
D20*
%TO.C,C29*%
X94400000Y-138200000D03*
X94400000Y-136125000D03*
%TD*%
D15*
%TO.C,R9*%
X72600000Y-124984000D03*
X72600000Y-126984000D03*
%TD*%
D20*
%TO.C,C13*%
X67600000Y-141137500D03*
X67600000Y-139062500D03*
%TD*%
D23*
%TO.C,C22*%
X122428000Y-139348300D03*
X122428000Y-141423300D03*
%TD*%
D50*
%TO.C,R3*%
X57000000Y-141400000D03*
X57000000Y-139400000D03*
%TD*%
D47*
%TO.C,R13*%
X104500000Y-131900000D03*
X106500000Y-131900000D03*
%TD*%
D51*
%TO.C,R2*%
X56997600Y-99221700D03*
X56997600Y-105146700D03*
%TD*%
D38*
%TO.C,C6*%
X59998700Y-105410000D03*
X62073700Y-105410000D03*
%TD*%
D31*
%TO.C,H1*%
X49300000Y-81000000D03*
%TD*%
D26*
%TO.C,R19*%
X68427600Y-109945900D03*
X68427600Y-107020900D03*
%TD*%
D20*
%TO.C,C18*%
X132130800Y-124278300D03*
X132130800Y-122203300D03*
%TD*%
D15*
%TO.C,R8*%
X67600000Y-143000000D03*
X67600000Y-145000000D03*
%TD*%
D52*
%TO.C,L3*%
X127889000Y-113131600D03*
X127889000Y-120243600D03*
%TD*%
D31*
%TO.C,H2*%
X142200000Y-81200000D03*
%TD*%
D36*
%TO.C,C28*%
X70500200Y-102692200D03*
X72400200Y-102692200D03*
%TD*%
D40*
%TO.C,RV2*%
X68282200Y-120278200D03*
D42*
X67132200Y-115078200D03*
D40*
X65982200Y-120278200D03*
%TD*%
D47*
%TO.C,R5*%
X64074800Y-99339400D03*
X66074800Y-99339400D03*
%TD*%
D34*
%TO.C,R11*%
X127076200Y-115326700D03*
X127076200Y-118251700D03*
%TD*%
D23*
%TO.C,C4*%
X63449200Y-121898500D03*
X63449200Y-123973500D03*
%TD*%
D53*
%TO.C,L2*%
X70739000Y-121938400D03*
X70739000Y-124238400D03*
%TD*%
D44*
%TO.C,TLT1*%
X93548200Y-98729800D03*
X113106200Y-98729800D03*
X113106200Y-108635800D03*
X93548200Y-108889800D03*
%TD*%
M02*
