%TF.GenerationSoftware,KiCad,Pcbnew,(6.0.1)*%
%TF.CreationDate,2022-01-26T11:25:13+01:00*%
%TF.ProjectId,MUNIN 100,4d554e49-4e20-4313-9030-2e6b69636164,0*%
%TF.SameCoordinates,Original*%
%TF.FileFunction,Legend,Top*%
%TF.FilePolarity,Positive*%
%FSLAX46Y46*%
G04 Gerber Fmt 4.6, Leading zero omitted, Abs format (unit mm)*
G04 Created by KiCad (PCBNEW (6.0.1)) date 2022-01-26 11:25:13*
%MOMM*%
%LPD*%
G01*
G04 APERTURE LIST*
%ADD10C,0.150000*%
%ADD11C,0.120000*%
G04 APERTURE END LIST*
D10*
X131871428Y-89252380D02*
X131538095Y-88776190D01*
X131300000Y-89252380D02*
X131300000Y-88252380D01*
X131680952Y-88252380D01*
X131776190Y-88300000D01*
X131823809Y-88347619D01*
X131871428Y-88442857D01*
X131871428Y-88585714D01*
X131823809Y-88680952D01*
X131776190Y-88728571D01*
X131680952Y-88776190D01*
X131300000Y-88776190D01*
X132633333Y-88728571D02*
X132300000Y-88728571D01*
X132300000Y-89252380D02*
X132300000Y-88252380D01*
X132776190Y-88252380D01*
X134109523Y-88252380D02*
X134300000Y-88252380D01*
X134395238Y-88300000D01*
X134490476Y-88395238D01*
X134538095Y-88585714D01*
X134538095Y-88919047D01*
X134490476Y-89109523D01*
X134395238Y-89204761D01*
X134300000Y-89252380D01*
X134109523Y-89252380D01*
X134014285Y-89204761D01*
X133919047Y-89109523D01*
X133871428Y-88919047D01*
X133871428Y-88585714D01*
X133919047Y-88395238D01*
X134014285Y-88300000D01*
X134109523Y-88252380D01*
X134966666Y-88252380D02*
X134966666Y-89061904D01*
X135014285Y-89157142D01*
X135061904Y-89204761D01*
X135157142Y-89252380D01*
X135347619Y-89252380D01*
X135442857Y-89204761D01*
X135490476Y-89157142D01*
X135538095Y-89061904D01*
X135538095Y-88252380D01*
X135871428Y-88252380D02*
X136442857Y-88252380D01*
X136157142Y-89252380D02*
X136157142Y-88252380D01*
X55838095Y-90052380D02*
X55504761Y-89576190D01*
X55266666Y-90052380D02*
X55266666Y-89052380D01*
X55647619Y-89052380D01*
X55742857Y-89100000D01*
X55790476Y-89147619D01*
X55838095Y-89242857D01*
X55838095Y-89385714D01*
X55790476Y-89480952D01*
X55742857Y-89528571D01*
X55647619Y-89576190D01*
X55266666Y-89576190D01*
X56600000Y-89528571D02*
X56266666Y-89528571D01*
X56266666Y-90052380D02*
X56266666Y-89052380D01*
X56742857Y-89052380D01*
X57885714Y-90052380D02*
X57885714Y-89052380D01*
X58361904Y-90052380D02*
X58361904Y-89052380D01*
X58933333Y-90052380D01*
X58933333Y-89052380D01*
%TO.C,J2*%
X137366666Y-83952380D02*
X137366666Y-84666666D01*
X137319047Y-84809523D01*
X137223809Y-84904761D01*
X137080952Y-84952380D01*
X136985714Y-84952380D01*
X137795238Y-84047619D02*
X137842857Y-84000000D01*
X137938095Y-83952380D01*
X138176190Y-83952380D01*
X138271428Y-84000000D01*
X138319047Y-84047619D01*
X138366666Y-84142857D01*
X138366666Y-84238095D01*
X138319047Y-84380952D01*
X137747619Y-84952380D01*
X138366666Y-84952380D01*
%TO.C,J1*%
X53566666Y-83952380D02*
X53566666Y-84666666D01*
X53519047Y-84809523D01*
X53423809Y-84904761D01*
X53280952Y-84952380D01*
X53185714Y-84952380D01*
X54566666Y-84952380D02*
X53995238Y-84952380D01*
X54280952Y-84952380D02*
X54280952Y-83952380D01*
X54185714Y-84095238D01*
X54090476Y-84190476D01*
X53995238Y-84238095D01*
%TO.C,Q3*%
X82504761Y-128660119D02*
X82409523Y-128612500D01*
X82314285Y-128517261D01*
X82171428Y-128374404D01*
X82076190Y-128326785D01*
X81980952Y-128326785D01*
X82028571Y-128564880D02*
X81933333Y-128517261D01*
X81838095Y-128422023D01*
X81790476Y-128231547D01*
X81790476Y-127898214D01*
X81838095Y-127707738D01*
X81933333Y-127612500D01*
X82028571Y-127564880D01*
X82219047Y-127564880D01*
X82314285Y-127612500D01*
X82409523Y-127707738D01*
X82457142Y-127898214D01*
X82457142Y-128231547D01*
X82409523Y-128422023D01*
X82314285Y-128517261D01*
X82219047Y-128564880D01*
X82028571Y-128564880D01*
X82790476Y-127564880D02*
X83409523Y-127564880D01*
X83076190Y-127945833D01*
X83219047Y-127945833D01*
X83314285Y-127993452D01*
X83361904Y-128041071D01*
X83409523Y-128136309D01*
X83409523Y-128374404D01*
X83361904Y-128469642D01*
X83314285Y-128517261D01*
X83219047Y-128564880D01*
X82933333Y-128564880D01*
X82838095Y-128517261D01*
X82790476Y-128469642D01*
%TO.C,Q2*%
X82504761Y-80135119D02*
X82409523Y-80087500D01*
X82314285Y-79992261D01*
X82171428Y-79849404D01*
X82076190Y-79801785D01*
X81980952Y-79801785D01*
X82028571Y-80039880D02*
X81933333Y-79992261D01*
X81838095Y-79897023D01*
X81790476Y-79706547D01*
X81790476Y-79373214D01*
X81838095Y-79182738D01*
X81933333Y-79087500D01*
X82028571Y-79039880D01*
X82219047Y-79039880D01*
X82314285Y-79087500D01*
X82409523Y-79182738D01*
X82457142Y-79373214D01*
X82457142Y-79706547D01*
X82409523Y-79897023D01*
X82314285Y-79992261D01*
X82219047Y-80039880D01*
X82028571Y-80039880D01*
X82838095Y-79135119D02*
X82885714Y-79087500D01*
X82980952Y-79039880D01*
X83219047Y-79039880D01*
X83314285Y-79087500D01*
X83361904Y-79135119D01*
X83409523Y-79230357D01*
X83409523Y-79325595D01*
X83361904Y-79468452D01*
X82790476Y-80039880D01*
X83409523Y-80039880D01*
%TO.C,C1*%
X56293333Y-147353942D02*
X56245714Y-147401561D01*
X56102857Y-147449180D01*
X56007619Y-147449180D01*
X55864761Y-147401561D01*
X55769523Y-147306323D01*
X55721904Y-147211085D01*
X55674285Y-147020609D01*
X55674285Y-146877752D01*
X55721904Y-146687276D01*
X55769523Y-146592038D01*
X55864761Y-146496800D01*
X56007619Y-146449180D01*
X56102857Y-146449180D01*
X56245714Y-146496800D01*
X56293333Y-146544419D01*
X57245714Y-147449180D02*
X56674285Y-147449180D01*
X56960000Y-147449180D02*
X56960000Y-146449180D01*
X56864761Y-146592038D01*
X56769523Y-146687276D01*
X56674285Y-146734895D01*
%TO.C,R1*%
X58567580Y-109564466D02*
X58091390Y-109897800D01*
X58567580Y-110135895D02*
X57567580Y-110135895D01*
X57567580Y-109754942D01*
X57615200Y-109659704D01*
X57662819Y-109612085D01*
X57758057Y-109564466D01*
X57900914Y-109564466D01*
X57996152Y-109612085D01*
X58043771Y-109659704D01*
X58091390Y-109754942D01*
X58091390Y-110135895D01*
X58567580Y-108612085D02*
X58567580Y-109183514D01*
X58567580Y-108897800D02*
X57567580Y-108897800D01*
X57710438Y-108993038D01*
X57805676Y-109088276D01*
X57853295Y-109183514D01*
%TO.C,U2*%
X99465095Y-122750380D02*
X99465095Y-123559904D01*
X99512714Y-123655142D01*
X99560333Y-123702761D01*
X99655571Y-123750380D01*
X99846047Y-123750380D01*
X99941285Y-123702761D01*
X99988904Y-123655142D01*
X100036523Y-123559904D01*
X100036523Y-122750380D01*
X100465095Y-122845619D02*
X100512714Y-122798000D01*
X100607952Y-122750380D01*
X100846047Y-122750380D01*
X100941285Y-122798000D01*
X100988904Y-122845619D01*
X101036523Y-122940857D01*
X101036523Y-123036095D01*
X100988904Y-123178952D01*
X100417476Y-123750380D01*
X101036523Y-123750380D01*
%TO.C,C8*%
X63003133Y-114559142D02*
X62955514Y-114606761D01*
X62812657Y-114654380D01*
X62717419Y-114654380D01*
X62574561Y-114606761D01*
X62479323Y-114511523D01*
X62431704Y-114416285D01*
X62384085Y-114225809D01*
X62384085Y-114082952D01*
X62431704Y-113892476D01*
X62479323Y-113797238D01*
X62574561Y-113702000D01*
X62717419Y-113654380D01*
X62812657Y-113654380D01*
X62955514Y-113702000D01*
X63003133Y-113749619D01*
X63574561Y-114082952D02*
X63479323Y-114035333D01*
X63431704Y-113987714D01*
X63384085Y-113892476D01*
X63384085Y-113844857D01*
X63431704Y-113749619D01*
X63479323Y-113702000D01*
X63574561Y-113654380D01*
X63765038Y-113654380D01*
X63860276Y-113702000D01*
X63907895Y-113749619D01*
X63955514Y-113844857D01*
X63955514Y-113892476D01*
X63907895Y-113987714D01*
X63860276Y-114035333D01*
X63765038Y-114082952D01*
X63574561Y-114082952D01*
X63479323Y-114130571D01*
X63431704Y-114178190D01*
X63384085Y-114273428D01*
X63384085Y-114463904D01*
X63431704Y-114559142D01*
X63479323Y-114606761D01*
X63574561Y-114654380D01*
X63765038Y-114654380D01*
X63860276Y-114606761D01*
X63907895Y-114559142D01*
X63955514Y-114463904D01*
X63955514Y-114273428D01*
X63907895Y-114178190D01*
X63860276Y-114130571D01*
X63765038Y-114082952D01*
%TO.C,L1*%
X61852380Y-143066666D02*
X61852380Y-143542857D01*
X60852380Y-143542857D01*
X61852380Y-142209523D02*
X61852380Y-142780952D01*
X61852380Y-142495238D02*
X60852380Y-142495238D01*
X60995238Y-142590476D01*
X61090476Y-142685714D01*
X61138095Y-142780952D01*
%TO.C,C12*%
X62577142Y-140742857D02*
X62624761Y-140790476D01*
X62672380Y-140933333D01*
X62672380Y-141028571D01*
X62624761Y-141171428D01*
X62529523Y-141266666D01*
X62434285Y-141314285D01*
X62243809Y-141361904D01*
X62100952Y-141361904D01*
X61910476Y-141314285D01*
X61815238Y-141266666D01*
X61720000Y-141171428D01*
X61672380Y-141028571D01*
X61672380Y-140933333D01*
X61720000Y-140790476D01*
X61767619Y-140742857D01*
X62672380Y-139790476D02*
X62672380Y-140361904D01*
X62672380Y-140076190D02*
X61672380Y-140076190D01*
X61815238Y-140171428D01*
X61910476Y-140266666D01*
X61958095Y-140361904D01*
X61767619Y-139409523D02*
X61720000Y-139361904D01*
X61672380Y-139266666D01*
X61672380Y-139028571D01*
X61720000Y-138933333D01*
X61767619Y-138885714D01*
X61862857Y-138838095D01*
X61958095Y-138838095D01*
X62100952Y-138885714D01*
X62672380Y-139457142D01*
X62672380Y-138838095D01*
%TO.C,L4*%
X124445733Y-121026180D02*
X123969542Y-121026180D01*
X123969542Y-120026180D01*
X125207638Y-120359514D02*
X125207638Y-121026180D01*
X124969542Y-119978561D02*
X124731447Y-120692847D01*
X125350495Y-120692847D01*
%TO.C,C14*%
X106418142Y-114555542D02*
X106370523Y-114603161D01*
X106227666Y-114650780D01*
X106132428Y-114650780D01*
X105989571Y-114603161D01*
X105894333Y-114507923D01*
X105846714Y-114412685D01*
X105799095Y-114222209D01*
X105799095Y-114079352D01*
X105846714Y-113888876D01*
X105894333Y-113793638D01*
X105989571Y-113698400D01*
X106132428Y-113650780D01*
X106227666Y-113650780D01*
X106370523Y-113698400D01*
X106418142Y-113746019D01*
X107370523Y-114650780D02*
X106799095Y-114650780D01*
X107084809Y-114650780D02*
X107084809Y-113650780D01*
X106989571Y-113793638D01*
X106894333Y-113888876D01*
X106799095Y-113936495D01*
X108227666Y-113984114D02*
X108227666Y-114650780D01*
X107989571Y-113603161D02*
X107751476Y-114317447D01*
X108370523Y-114317447D01*
%TO.C,C7*%
X66905142Y-123077266D02*
X66952761Y-123124885D01*
X67000380Y-123267742D01*
X67000380Y-123362980D01*
X66952761Y-123505838D01*
X66857523Y-123601076D01*
X66762285Y-123648695D01*
X66571809Y-123696314D01*
X66428952Y-123696314D01*
X66238476Y-123648695D01*
X66143238Y-123601076D01*
X66048000Y-123505838D01*
X66000380Y-123362980D01*
X66000380Y-123267742D01*
X66048000Y-123124885D01*
X66095619Y-123077266D01*
X66000380Y-122743933D02*
X66000380Y-122077266D01*
X67000380Y-122505838D01*
%TO.C,C26*%
X109557142Y-127942857D02*
X109604761Y-127990476D01*
X109652380Y-128133333D01*
X109652380Y-128228571D01*
X109604761Y-128371428D01*
X109509523Y-128466666D01*
X109414285Y-128514285D01*
X109223809Y-128561904D01*
X109080952Y-128561904D01*
X108890476Y-128514285D01*
X108795238Y-128466666D01*
X108700000Y-128371428D01*
X108652380Y-128228571D01*
X108652380Y-128133333D01*
X108700000Y-127990476D01*
X108747619Y-127942857D01*
X108747619Y-127561904D02*
X108700000Y-127514285D01*
X108652380Y-127419047D01*
X108652380Y-127180952D01*
X108700000Y-127085714D01*
X108747619Y-127038095D01*
X108842857Y-126990476D01*
X108938095Y-126990476D01*
X109080952Y-127038095D01*
X109652380Y-127609523D01*
X109652380Y-126990476D01*
X108652380Y-126133333D02*
X108652380Y-126323809D01*
X108700000Y-126419047D01*
X108747619Y-126466666D01*
X108890476Y-126561904D01*
X109080952Y-126609523D01*
X109461904Y-126609523D01*
X109557142Y-126561904D01*
X109604761Y-126514285D01*
X109652380Y-126419047D01*
X109652380Y-126228571D01*
X109604761Y-126133333D01*
X109557142Y-126085714D01*
X109461904Y-126038095D01*
X109223809Y-126038095D01*
X109128571Y-126085714D01*
X109080952Y-126133333D01*
X109033333Y-126228571D01*
X109033333Y-126419047D01*
X109080952Y-126514285D01*
X109128571Y-126561904D01*
X109223809Y-126609523D01*
%TO.C,C15*%
X106672142Y-90577942D02*
X106624523Y-90625561D01*
X106481666Y-90673180D01*
X106386428Y-90673180D01*
X106243571Y-90625561D01*
X106148333Y-90530323D01*
X106100714Y-90435085D01*
X106053095Y-90244609D01*
X106053095Y-90101752D01*
X106100714Y-89911276D01*
X106148333Y-89816038D01*
X106243571Y-89720800D01*
X106386428Y-89673180D01*
X106481666Y-89673180D01*
X106624523Y-89720800D01*
X106672142Y-89768419D01*
X107624523Y-90673180D02*
X107053095Y-90673180D01*
X107338809Y-90673180D02*
X107338809Y-89673180D01*
X107243571Y-89816038D01*
X107148333Y-89911276D01*
X107053095Y-89958895D01*
X108529285Y-89673180D02*
X108053095Y-89673180D01*
X108005476Y-90149371D01*
X108053095Y-90101752D01*
X108148333Y-90054133D01*
X108386428Y-90054133D01*
X108481666Y-90101752D01*
X108529285Y-90149371D01*
X108576904Y-90244609D01*
X108576904Y-90482704D01*
X108529285Y-90577942D01*
X108481666Y-90625561D01*
X108386428Y-90673180D01*
X108148333Y-90673180D01*
X108053095Y-90625561D01*
X108005476Y-90577942D01*
%TO.C,C24*%
X93987942Y-133042857D02*
X94035561Y-133090476D01*
X94083180Y-133233333D01*
X94083180Y-133328571D01*
X94035561Y-133471428D01*
X93940323Y-133566666D01*
X93845085Y-133614285D01*
X93654609Y-133661904D01*
X93511752Y-133661904D01*
X93321276Y-133614285D01*
X93226038Y-133566666D01*
X93130800Y-133471428D01*
X93083180Y-133328571D01*
X93083180Y-133233333D01*
X93130800Y-133090476D01*
X93178419Y-133042857D01*
X93178419Y-132661904D02*
X93130800Y-132614285D01*
X93083180Y-132519047D01*
X93083180Y-132280952D01*
X93130800Y-132185714D01*
X93178419Y-132138095D01*
X93273657Y-132090476D01*
X93368895Y-132090476D01*
X93511752Y-132138095D01*
X94083180Y-132709523D01*
X94083180Y-132090476D01*
X93416514Y-131233333D02*
X94083180Y-131233333D01*
X93035561Y-131471428D02*
X93749847Y-131709523D01*
X93749847Y-131090476D01*
%TO.C,C17*%
X106367342Y-117806742D02*
X106319723Y-117854361D01*
X106176866Y-117901980D01*
X106081628Y-117901980D01*
X105938771Y-117854361D01*
X105843533Y-117759123D01*
X105795914Y-117663885D01*
X105748295Y-117473409D01*
X105748295Y-117330552D01*
X105795914Y-117140076D01*
X105843533Y-117044838D01*
X105938771Y-116949600D01*
X106081628Y-116901980D01*
X106176866Y-116901980D01*
X106319723Y-116949600D01*
X106367342Y-116997219D01*
X107319723Y-117901980D02*
X106748295Y-117901980D01*
X107034009Y-117901980D02*
X107034009Y-116901980D01*
X106938771Y-117044838D01*
X106843533Y-117140076D01*
X106748295Y-117187695D01*
X107653057Y-116901980D02*
X108319723Y-116901980D01*
X107891152Y-117901980D01*
%TO.C,C19*%
X134257142Y-123842857D02*
X134304761Y-123890476D01*
X134352380Y-124033333D01*
X134352380Y-124128571D01*
X134304761Y-124271428D01*
X134209523Y-124366666D01*
X134114285Y-124414285D01*
X133923809Y-124461904D01*
X133780952Y-124461904D01*
X133590476Y-124414285D01*
X133495238Y-124366666D01*
X133400000Y-124271428D01*
X133352380Y-124128571D01*
X133352380Y-124033333D01*
X133400000Y-123890476D01*
X133447619Y-123842857D01*
X134352380Y-122890476D02*
X134352380Y-123461904D01*
X134352380Y-123176190D02*
X133352380Y-123176190D01*
X133495238Y-123271428D01*
X133590476Y-123366666D01*
X133638095Y-123461904D01*
X134352380Y-122414285D02*
X134352380Y-122223809D01*
X134304761Y-122128571D01*
X134257142Y-122080952D01*
X134114285Y-121985714D01*
X133923809Y-121938095D01*
X133542857Y-121938095D01*
X133447619Y-121985714D01*
X133400000Y-122033333D01*
X133352380Y-122128571D01*
X133352380Y-122319047D01*
X133400000Y-122414285D01*
X133447619Y-122461904D01*
X133542857Y-122509523D01*
X133780952Y-122509523D01*
X133876190Y-122461904D01*
X133923809Y-122414285D01*
X133971428Y-122319047D01*
X133971428Y-122128571D01*
X133923809Y-122033333D01*
X133876190Y-121985714D01*
X133780952Y-121938095D01*
%TO.C,R7*%
X61512333Y-145453980D02*
X61179000Y-144977790D01*
X60940904Y-145453980D02*
X60940904Y-144453980D01*
X61321857Y-144453980D01*
X61417095Y-144501600D01*
X61464714Y-144549219D01*
X61512333Y-144644457D01*
X61512333Y-144787314D01*
X61464714Y-144882552D01*
X61417095Y-144930171D01*
X61321857Y-144977790D01*
X60940904Y-144977790D01*
X61845666Y-144453980D02*
X62512333Y-144453980D01*
X62083761Y-145453980D01*
%TO.C,R4*%
X64384180Y-110504266D02*
X63907990Y-110837600D01*
X64384180Y-111075695D02*
X63384180Y-111075695D01*
X63384180Y-110694742D01*
X63431800Y-110599504D01*
X63479419Y-110551885D01*
X63574657Y-110504266D01*
X63717514Y-110504266D01*
X63812752Y-110551885D01*
X63860371Y-110599504D01*
X63907990Y-110694742D01*
X63907990Y-111075695D01*
X63717514Y-109647123D02*
X64384180Y-109647123D01*
X63336561Y-109885219D02*
X64050847Y-110123314D01*
X64050847Y-109504266D01*
%TO.C,IC1*%
X114523809Y-136952380D02*
X114523809Y-135952380D01*
X115571428Y-136857142D02*
X115523809Y-136904761D01*
X115380952Y-136952380D01*
X115285714Y-136952380D01*
X115142857Y-136904761D01*
X115047619Y-136809523D01*
X115000000Y-136714285D01*
X114952380Y-136523809D01*
X114952380Y-136380952D01*
X115000000Y-136190476D01*
X115047619Y-136095238D01*
X115142857Y-136000000D01*
X115285714Y-135952380D01*
X115380952Y-135952380D01*
X115523809Y-136000000D01*
X115571428Y-136047619D01*
X116523809Y-136952380D02*
X115952380Y-136952380D01*
X116238095Y-136952380D02*
X116238095Y-135952380D01*
X116142857Y-136095238D01*
X116047619Y-136190476D01*
X115952380Y-136238095D01*
%TO.C,R18*%
X71343780Y-112961657D02*
X70867590Y-113294990D01*
X71343780Y-113533085D02*
X70343780Y-113533085D01*
X70343780Y-113152133D01*
X70391400Y-113056895D01*
X70439019Y-113009276D01*
X70534257Y-112961657D01*
X70677114Y-112961657D01*
X70772352Y-113009276D01*
X70819971Y-113056895D01*
X70867590Y-113152133D01*
X70867590Y-113533085D01*
X71343780Y-112009276D02*
X71343780Y-112580704D01*
X71343780Y-112294990D02*
X70343780Y-112294990D01*
X70486638Y-112390228D01*
X70581876Y-112485466D01*
X70629495Y-112580704D01*
X70772352Y-111437847D02*
X70724733Y-111533085D01*
X70677114Y-111580704D01*
X70581876Y-111628323D01*
X70534257Y-111628323D01*
X70439019Y-111580704D01*
X70391400Y-111533085D01*
X70343780Y-111437847D01*
X70343780Y-111247371D01*
X70391400Y-111152133D01*
X70439019Y-111104514D01*
X70534257Y-111056895D01*
X70581876Y-111056895D01*
X70677114Y-111104514D01*
X70724733Y-111152133D01*
X70772352Y-111247371D01*
X70772352Y-111437847D01*
X70819971Y-111533085D01*
X70867590Y-111580704D01*
X70962828Y-111628323D01*
X71153304Y-111628323D01*
X71248542Y-111580704D01*
X71296161Y-111533085D01*
X71343780Y-111437847D01*
X71343780Y-111247371D01*
X71296161Y-111152133D01*
X71248542Y-111104514D01*
X71153304Y-111056895D01*
X70962828Y-111056895D01*
X70867590Y-111104514D01*
X70819971Y-111152133D01*
X70772352Y-111247371D01*
%TO.C,C25*%
X110837742Y-117425742D02*
X110790123Y-117473361D01*
X110647266Y-117520980D01*
X110552028Y-117520980D01*
X110409171Y-117473361D01*
X110313933Y-117378123D01*
X110266314Y-117282885D01*
X110218695Y-117092409D01*
X110218695Y-116949552D01*
X110266314Y-116759076D01*
X110313933Y-116663838D01*
X110409171Y-116568600D01*
X110552028Y-116520980D01*
X110647266Y-116520980D01*
X110790123Y-116568600D01*
X110837742Y-116616219D01*
X111218695Y-116616219D02*
X111266314Y-116568600D01*
X111361552Y-116520980D01*
X111599647Y-116520980D01*
X111694885Y-116568600D01*
X111742504Y-116616219D01*
X111790123Y-116711457D01*
X111790123Y-116806695D01*
X111742504Y-116949552D01*
X111171076Y-117520980D01*
X111790123Y-117520980D01*
X112694885Y-116520980D02*
X112218695Y-116520980D01*
X112171076Y-116997171D01*
X112218695Y-116949552D01*
X112313933Y-116901933D01*
X112552028Y-116901933D01*
X112647266Y-116949552D01*
X112694885Y-116997171D01*
X112742504Y-117092409D01*
X112742504Y-117330504D01*
X112694885Y-117425742D01*
X112647266Y-117473361D01*
X112552028Y-117520980D01*
X112313933Y-117520980D01*
X112218695Y-117473361D01*
X112171076Y-117425742D01*
%TO.C,TR1*%
X49487295Y-106640380D02*
X50058723Y-106640380D01*
X49773009Y-107640380D02*
X49773009Y-106640380D01*
X50963485Y-107640380D02*
X50630152Y-107164190D01*
X50392057Y-107640380D02*
X50392057Y-106640380D01*
X50773009Y-106640380D01*
X50868247Y-106688000D01*
X50915866Y-106735619D01*
X50963485Y-106830857D01*
X50963485Y-106973714D01*
X50915866Y-107068952D01*
X50868247Y-107116571D01*
X50773009Y-107164190D01*
X50392057Y-107164190D01*
X51915866Y-107640380D02*
X51344438Y-107640380D01*
X51630152Y-107640380D02*
X51630152Y-106640380D01*
X51534914Y-106783238D01*
X51439676Y-106878476D01*
X51344438Y-106926095D01*
%TO.C,D1*%
X95452380Y-148338095D02*
X94452380Y-148338095D01*
X94452380Y-148100000D01*
X94500000Y-147957142D01*
X94595238Y-147861904D01*
X94690476Y-147814285D01*
X94880952Y-147766666D01*
X95023809Y-147766666D01*
X95214285Y-147814285D01*
X95309523Y-147861904D01*
X95404761Y-147957142D01*
X95452380Y-148100000D01*
X95452380Y-148338095D01*
X95452380Y-146814285D02*
X95452380Y-147385714D01*
X95452380Y-147100000D02*
X94452380Y-147100000D01*
X94595238Y-147195238D01*
X94690476Y-147290476D01*
X94738095Y-147385714D01*
%TO.C,C11*%
X91846142Y-104356857D02*
X91893761Y-104404476D01*
X91941380Y-104547333D01*
X91941380Y-104642571D01*
X91893761Y-104785428D01*
X91798523Y-104880666D01*
X91703285Y-104928285D01*
X91512809Y-104975904D01*
X91369952Y-104975904D01*
X91179476Y-104928285D01*
X91084238Y-104880666D01*
X90989000Y-104785428D01*
X90941380Y-104642571D01*
X90941380Y-104547333D01*
X90989000Y-104404476D01*
X91036619Y-104356857D01*
X91941380Y-103404476D02*
X91941380Y-103975904D01*
X91941380Y-103690190D02*
X90941380Y-103690190D01*
X91084238Y-103785428D01*
X91179476Y-103880666D01*
X91227095Y-103975904D01*
X91941380Y-102452095D02*
X91941380Y-103023523D01*
X91941380Y-102737809D02*
X90941380Y-102737809D01*
X91084238Y-102833047D01*
X91179476Y-102928285D01*
X91227095Y-103023523D01*
%TO.C,H3*%
X142646495Y-145257780D02*
X142646495Y-144257780D01*
X142646495Y-144733971D02*
X143217923Y-144733971D01*
X143217923Y-145257780D02*
X143217923Y-144257780D01*
X143598876Y-144257780D02*
X144217923Y-144257780D01*
X143884590Y-144638733D01*
X144027447Y-144638733D01*
X144122685Y-144686352D01*
X144170304Y-144733971D01*
X144217923Y-144829209D01*
X144217923Y-145067304D01*
X144170304Y-145162542D01*
X144122685Y-145210161D01*
X144027447Y-145257780D01*
X143741733Y-145257780D01*
X143646495Y-145210161D01*
X143598876Y-145162542D01*
%TO.C,C23*%
X124994942Y-145981657D02*
X125042561Y-146029276D01*
X125090180Y-146172133D01*
X125090180Y-146267371D01*
X125042561Y-146410228D01*
X124947323Y-146505466D01*
X124852085Y-146553085D01*
X124661609Y-146600704D01*
X124518752Y-146600704D01*
X124328276Y-146553085D01*
X124233038Y-146505466D01*
X124137800Y-146410228D01*
X124090180Y-146267371D01*
X124090180Y-146172133D01*
X124137800Y-146029276D01*
X124185419Y-145981657D01*
X124185419Y-145600704D02*
X124137800Y-145553085D01*
X124090180Y-145457847D01*
X124090180Y-145219752D01*
X124137800Y-145124514D01*
X124185419Y-145076895D01*
X124280657Y-145029276D01*
X124375895Y-145029276D01*
X124518752Y-145076895D01*
X125090180Y-145648323D01*
X125090180Y-145029276D01*
X124090180Y-144695942D02*
X124090180Y-144076895D01*
X124471133Y-144410228D01*
X124471133Y-144267371D01*
X124518752Y-144172133D01*
X124566371Y-144124514D01*
X124661609Y-144076895D01*
X124899704Y-144076895D01*
X124994942Y-144124514D01*
X125042561Y-144172133D01*
X125090180Y-144267371D01*
X125090180Y-144553085D01*
X125042561Y-144648323D01*
X124994942Y-144695942D01*
%TO.C,D3*%
X63461904Y-103652380D02*
X63461904Y-102652380D01*
X63700000Y-102652380D01*
X63842857Y-102700000D01*
X63938095Y-102795238D01*
X63985714Y-102890476D01*
X64033333Y-103080952D01*
X64033333Y-103223809D01*
X63985714Y-103414285D01*
X63938095Y-103509523D01*
X63842857Y-103604761D01*
X63700000Y-103652380D01*
X63461904Y-103652380D01*
X64366666Y-102652380D02*
X64985714Y-102652380D01*
X64652380Y-103033333D01*
X64795238Y-103033333D01*
X64890476Y-103080952D01*
X64938095Y-103128571D01*
X64985714Y-103223809D01*
X64985714Y-103461904D01*
X64938095Y-103557142D01*
X64890476Y-103604761D01*
X64795238Y-103652380D01*
X64509523Y-103652380D01*
X64414285Y-103604761D01*
X64366666Y-103557142D01*
%TO.C,C9*%
X66277142Y-136066666D02*
X66324761Y-136114285D01*
X66372380Y-136257142D01*
X66372380Y-136352380D01*
X66324761Y-136495238D01*
X66229523Y-136590476D01*
X66134285Y-136638095D01*
X65943809Y-136685714D01*
X65800952Y-136685714D01*
X65610476Y-136638095D01*
X65515238Y-136590476D01*
X65420000Y-136495238D01*
X65372380Y-136352380D01*
X65372380Y-136257142D01*
X65420000Y-136114285D01*
X65467619Y-136066666D01*
X66372380Y-135590476D02*
X66372380Y-135400000D01*
X66324761Y-135304761D01*
X66277142Y-135257142D01*
X66134285Y-135161904D01*
X65943809Y-135114285D01*
X65562857Y-135114285D01*
X65467619Y-135161904D01*
X65420000Y-135209523D01*
X65372380Y-135304761D01*
X65372380Y-135495238D01*
X65420000Y-135590476D01*
X65467619Y-135638095D01*
X65562857Y-135685714D01*
X65800952Y-135685714D01*
X65896190Y-135638095D01*
X65943809Y-135590476D01*
X65991428Y-135495238D01*
X65991428Y-135304761D01*
X65943809Y-135209523D01*
X65896190Y-135161904D01*
X65800952Y-135114285D01*
%TO.C,C21*%
X140757142Y-125833142D02*
X140709523Y-125880761D01*
X140566666Y-125928380D01*
X140471428Y-125928380D01*
X140328571Y-125880761D01*
X140233333Y-125785523D01*
X140185714Y-125690285D01*
X140138095Y-125499809D01*
X140138095Y-125356952D01*
X140185714Y-125166476D01*
X140233333Y-125071238D01*
X140328571Y-124976000D01*
X140471428Y-124928380D01*
X140566666Y-124928380D01*
X140709523Y-124976000D01*
X140757142Y-125023619D01*
X141138095Y-125023619D02*
X141185714Y-124976000D01*
X141280952Y-124928380D01*
X141519047Y-124928380D01*
X141614285Y-124976000D01*
X141661904Y-125023619D01*
X141709523Y-125118857D01*
X141709523Y-125214095D01*
X141661904Y-125356952D01*
X141090476Y-125928380D01*
X141709523Y-125928380D01*
X142661904Y-125928380D02*
X142090476Y-125928380D01*
X142376190Y-125928380D02*
X142376190Y-124928380D01*
X142280952Y-125071238D01*
X142185714Y-125166476D01*
X142090476Y-125214095D01*
%TO.C,R10*%
X118105180Y-115857257D02*
X117628990Y-116190590D01*
X118105180Y-116428685D02*
X117105180Y-116428685D01*
X117105180Y-116047733D01*
X117152800Y-115952495D01*
X117200419Y-115904876D01*
X117295657Y-115857257D01*
X117438514Y-115857257D01*
X117533752Y-115904876D01*
X117581371Y-115952495D01*
X117628990Y-116047733D01*
X117628990Y-116428685D01*
X118105180Y-114904876D02*
X118105180Y-115476304D01*
X118105180Y-115190590D02*
X117105180Y-115190590D01*
X117248038Y-115285828D01*
X117343276Y-115381066D01*
X117390895Y-115476304D01*
X117105180Y-114285828D02*
X117105180Y-114190590D01*
X117152800Y-114095352D01*
X117200419Y-114047733D01*
X117295657Y-114000114D01*
X117486133Y-113952495D01*
X117724228Y-113952495D01*
X117914704Y-114000114D01*
X118009942Y-114047733D01*
X118057561Y-114095352D01*
X118105180Y-114190590D01*
X118105180Y-114285828D01*
X118057561Y-114381066D01*
X118009942Y-114428685D01*
X117914704Y-114476304D01*
X117724228Y-114523923D01*
X117486133Y-114523923D01*
X117295657Y-114476304D01*
X117200419Y-114428685D01*
X117152800Y-114381066D01*
X117105180Y-114285828D01*
%TO.C,R12*%
X133141980Y-117381257D02*
X132665790Y-117714590D01*
X133141980Y-117952685D02*
X132141980Y-117952685D01*
X132141980Y-117571733D01*
X132189600Y-117476495D01*
X132237219Y-117428876D01*
X132332457Y-117381257D01*
X132475314Y-117381257D01*
X132570552Y-117428876D01*
X132618171Y-117476495D01*
X132665790Y-117571733D01*
X132665790Y-117952685D01*
X133141980Y-116428876D02*
X133141980Y-117000304D01*
X133141980Y-116714590D02*
X132141980Y-116714590D01*
X132284838Y-116809828D01*
X132380076Y-116905066D01*
X132427695Y-117000304D01*
X132237219Y-116047923D02*
X132189600Y-116000304D01*
X132141980Y-115905066D01*
X132141980Y-115666971D01*
X132189600Y-115571733D01*
X132237219Y-115524114D01*
X132332457Y-115476495D01*
X132427695Y-115476495D01*
X132570552Y-115524114D01*
X133141980Y-116095542D01*
X133141980Y-115476495D01*
%TO.C,L5*%
X76931780Y-100344266D02*
X76931780Y-100820457D01*
X75931780Y-100820457D01*
X75931780Y-99534742D02*
X75931780Y-100010933D01*
X76407971Y-100058552D01*
X76360352Y-100010933D01*
X76312733Y-99915695D01*
X76312733Y-99677600D01*
X76360352Y-99582361D01*
X76407971Y-99534742D01*
X76503209Y-99487123D01*
X76741304Y-99487123D01*
X76836542Y-99534742D01*
X76884161Y-99582361D01*
X76931780Y-99677600D01*
X76931780Y-99915695D01*
X76884161Y-100010933D01*
X76836542Y-100058552D01*
%TO.C,C27*%
X67733942Y-105259142D02*
X67686323Y-105306761D01*
X67543466Y-105354380D01*
X67448228Y-105354380D01*
X67305371Y-105306761D01*
X67210133Y-105211523D01*
X67162514Y-105116285D01*
X67114895Y-104925809D01*
X67114895Y-104782952D01*
X67162514Y-104592476D01*
X67210133Y-104497238D01*
X67305371Y-104402000D01*
X67448228Y-104354380D01*
X67543466Y-104354380D01*
X67686323Y-104402000D01*
X67733942Y-104449619D01*
X68114895Y-104449619D02*
X68162514Y-104402000D01*
X68257752Y-104354380D01*
X68495847Y-104354380D01*
X68591085Y-104402000D01*
X68638704Y-104449619D01*
X68686323Y-104544857D01*
X68686323Y-104640095D01*
X68638704Y-104782952D01*
X68067276Y-105354380D01*
X68686323Y-105354380D01*
X69019657Y-104354380D02*
X69686323Y-104354380D01*
X69257752Y-105354380D01*
%TO.C,R16*%
X71546980Y-96121457D02*
X71070790Y-96454790D01*
X71546980Y-96692885D02*
X70546980Y-96692885D01*
X70546980Y-96311933D01*
X70594600Y-96216695D01*
X70642219Y-96169076D01*
X70737457Y-96121457D01*
X70880314Y-96121457D01*
X70975552Y-96169076D01*
X71023171Y-96216695D01*
X71070790Y-96311933D01*
X71070790Y-96692885D01*
X71546980Y-95169076D02*
X71546980Y-95740504D01*
X71546980Y-95454790D02*
X70546980Y-95454790D01*
X70689838Y-95550028D01*
X70785076Y-95645266D01*
X70832695Y-95740504D01*
X70546980Y-94311933D02*
X70546980Y-94502409D01*
X70594600Y-94597647D01*
X70642219Y-94645266D01*
X70785076Y-94740504D01*
X70975552Y-94788123D01*
X71356504Y-94788123D01*
X71451742Y-94740504D01*
X71499361Y-94692885D01*
X71546980Y-94597647D01*
X71546980Y-94407171D01*
X71499361Y-94311933D01*
X71451742Y-94264314D01*
X71356504Y-94216695D01*
X71118409Y-94216695D01*
X71023171Y-94264314D01*
X70975552Y-94311933D01*
X70927933Y-94407171D01*
X70927933Y-94597647D01*
X70975552Y-94692885D01*
X71023171Y-94740504D01*
X71118409Y-94788123D01*
%TO.C,C5*%
X60920333Y-98067342D02*
X60872714Y-98114961D01*
X60729857Y-98162580D01*
X60634619Y-98162580D01*
X60491761Y-98114961D01*
X60396523Y-98019723D01*
X60348904Y-97924485D01*
X60301285Y-97734009D01*
X60301285Y-97591152D01*
X60348904Y-97400676D01*
X60396523Y-97305438D01*
X60491761Y-97210200D01*
X60634619Y-97162580D01*
X60729857Y-97162580D01*
X60872714Y-97210200D01*
X60920333Y-97257819D01*
X61825095Y-97162580D02*
X61348904Y-97162580D01*
X61301285Y-97638771D01*
X61348904Y-97591152D01*
X61444142Y-97543533D01*
X61682238Y-97543533D01*
X61777476Y-97591152D01*
X61825095Y-97638771D01*
X61872714Y-97734009D01*
X61872714Y-97972104D01*
X61825095Y-98067342D01*
X61777476Y-98114961D01*
X61682238Y-98162580D01*
X61444142Y-98162580D01*
X61348904Y-98114961D01*
X61301285Y-98067342D01*
%TO.C,J3*%
X94292266Y-142404080D02*
X94292266Y-143118366D01*
X94244647Y-143261223D01*
X94149409Y-143356461D01*
X94006552Y-143404080D01*
X93911314Y-143404080D01*
X94673219Y-142404080D02*
X95292266Y-142404080D01*
X94958933Y-142785033D01*
X95101790Y-142785033D01*
X95197028Y-142832652D01*
X95244647Y-142880271D01*
X95292266Y-142975509D01*
X95292266Y-143213604D01*
X95244647Y-143308842D01*
X95197028Y-143356461D01*
X95101790Y-143404080D01*
X94816076Y-143404080D01*
X94720838Y-143356461D01*
X94673219Y-143308842D01*
%TO.C,RV3*%
X100141361Y-136333780D02*
X99808028Y-135857590D01*
X99569933Y-136333780D02*
X99569933Y-135333780D01*
X99950885Y-135333780D01*
X100046123Y-135381400D01*
X100093742Y-135429019D01*
X100141361Y-135524257D01*
X100141361Y-135667114D01*
X100093742Y-135762352D01*
X100046123Y-135809971D01*
X99950885Y-135857590D01*
X99569933Y-135857590D01*
X100427076Y-135333780D02*
X100760409Y-136333780D01*
X101093742Y-135333780D01*
X101331838Y-135333780D02*
X101950885Y-135333780D01*
X101617552Y-135714733D01*
X101760409Y-135714733D01*
X101855647Y-135762352D01*
X101903266Y-135809971D01*
X101950885Y-135905209D01*
X101950885Y-136143304D01*
X101903266Y-136238542D01*
X101855647Y-136286161D01*
X101760409Y-136333780D01*
X101474695Y-136333780D01*
X101379457Y-136286161D01*
X101331838Y-136238542D01*
%TO.C,RV1*%
X55132361Y-118206780D02*
X54799028Y-117730590D01*
X54560933Y-118206780D02*
X54560933Y-117206780D01*
X54941885Y-117206780D01*
X55037123Y-117254400D01*
X55084742Y-117302019D01*
X55132361Y-117397257D01*
X55132361Y-117540114D01*
X55084742Y-117635352D01*
X55037123Y-117682971D01*
X54941885Y-117730590D01*
X54560933Y-117730590D01*
X55418076Y-117206780D02*
X55751409Y-118206780D01*
X56084742Y-117206780D01*
X56941885Y-118206780D02*
X56370457Y-118206780D01*
X56656171Y-118206780D02*
X56656171Y-117206780D01*
X56560933Y-117349638D01*
X56465695Y-117444876D01*
X56370457Y-117492495D01*
%TO.C,R15*%
X108057142Y-134852380D02*
X107723809Y-134376190D01*
X107485714Y-134852380D02*
X107485714Y-133852380D01*
X107866666Y-133852380D01*
X107961904Y-133900000D01*
X108009523Y-133947619D01*
X108057142Y-134042857D01*
X108057142Y-134185714D01*
X108009523Y-134280952D01*
X107961904Y-134328571D01*
X107866666Y-134376190D01*
X107485714Y-134376190D01*
X109009523Y-134852380D02*
X108438095Y-134852380D01*
X108723809Y-134852380D02*
X108723809Y-133852380D01*
X108628571Y-133995238D01*
X108533333Y-134090476D01*
X108438095Y-134138095D01*
X109914285Y-133852380D02*
X109438095Y-133852380D01*
X109390476Y-134328571D01*
X109438095Y-134280952D01*
X109533333Y-134233333D01*
X109771428Y-134233333D01*
X109866666Y-134280952D01*
X109914285Y-134328571D01*
X109961904Y-134423809D01*
X109961904Y-134661904D01*
X109914285Y-134757142D01*
X109866666Y-134804761D01*
X109771428Y-134852380D01*
X109533333Y-134852380D01*
X109438095Y-134804761D01*
X109390476Y-134757142D01*
%TO.C,C3*%
X56557142Y-144166666D02*
X56604761Y-144214285D01*
X56652380Y-144357142D01*
X56652380Y-144452380D01*
X56604761Y-144595238D01*
X56509523Y-144690476D01*
X56414285Y-144738095D01*
X56223809Y-144785714D01*
X56080952Y-144785714D01*
X55890476Y-144738095D01*
X55795238Y-144690476D01*
X55700000Y-144595238D01*
X55652380Y-144452380D01*
X55652380Y-144357142D01*
X55700000Y-144214285D01*
X55747619Y-144166666D01*
X55652380Y-143833333D02*
X55652380Y-143214285D01*
X56033333Y-143547619D01*
X56033333Y-143404761D01*
X56080952Y-143309523D01*
X56128571Y-143261904D01*
X56223809Y-143214285D01*
X56461904Y-143214285D01*
X56557142Y-143261904D01*
X56604761Y-143309523D01*
X56652380Y-143404761D01*
X56652380Y-143690476D01*
X56604761Y-143785714D01*
X56557142Y-143833333D01*
%TO.C,H4*%
X48564895Y-144994780D02*
X48564895Y-143994780D01*
X48564895Y-144470971D02*
X49136323Y-144470971D01*
X49136323Y-144994780D02*
X49136323Y-143994780D01*
X50041085Y-144328114D02*
X50041085Y-144994780D01*
X49802990Y-143947161D02*
X49564895Y-144661447D01*
X50183942Y-144661447D01*
%TO.C,C2*%
X55510133Y-112879142D02*
X55462514Y-112926761D01*
X55319657Y-112974380D01*
X55224419Y-112974380D01*
X55081561Y-112926761D01*
X54986323Y-112831523D01*
X54938704Y-112736285D01*
X54891085Y-112545809D01*
X54891085Y-112402952D01*
X54938704Y-112212476D01*
X54986323Y-112117238D01*
X55081561Y-112022000D01*
X55224419Y-111974380D01*
X55319657Y-111974380D01*
X55462514Y-112022000D01*
X55510133Y-112069619D01*
X55891085Y-112069619D02*
X55938704Y-112022000D01*
X56033942Y-111974380D01*
X56272038Y-111974380D01*
X56367276Y-112022000D01*
X56414895Y-112069619D01*
X56462514Y-112164857D01*
X56462514Y-112260095D01*
X56414895Y-112402952D01*
X55843466Y-112974380D01*
X56462514Y-112974380D01*
%TO.C,D2*%
X68961904Y-129952380D02*
X68961904Y-128952380D01*
X69200000Y-128952380D01*
X69342857Y-129000000D01*
X69438095Y-129095238D01*
X69485714Y-129190476D01*
X69533333Y-129380952D01*
X69533333Y-129523809D01*
X69485714Y-129714285D01*
X69438095Y-129809523D01*
X69342857Y-129904761D01*
X69200000Y-129952380D01*
X68961904Y-129952380D01*
X69914285Y-129047619D02*
X69961904Y-129000000D01*
X70057142Y-128952380D01*
X70295238Y-128952380D01*
X70390476Y-129000000D01*
X70438095Y-129047619D01*
X70485714Y-129142857D01*
X70485714Y-129238095D01*
X70438095Y-129380952D01*
X69866666Y-129952380D01*
X70485714Y-129952380D01*
%TO.C,J4*%
X108538380Y-143031033D02*
X109252666Y-143031033D01*
X109395523Y-143078652D01*
X109490761Y-143173890D01*
X109538380Y-143316747D01*
X109538380Y-143411985D01*
X108871714Y-142126271D02*
X109538380Y-142126271D01*
X108490761Y-142364366D02*
X109205047Y-142602461D01*
X109205047Y-141983414D01*
%TO.C,C20*%
X122857142Y-134742857D02*
X122904761Y-134790476D01*
X122952380Y-134933333D01*
X122952380Y-135028571D01*
X122904761Y-135171428D01*
X122809523Y-135266666D01*
X122714285Y-135314285D01*
X122523809Y-135361904D01*
X122380952Y-135361904D01*
X122190476Y-135314285D01*
X122095238Y-135266666D01*
X122000000Y-135171428D01*
X121952380Y-135028571D01*
X121952380Y-134933333D01*
X122000000Y-134790476D01*
X122047619Y-134742857D01*
X122047619Y-134361904D02*
X122000000Y-134314285D01*
X121952380Y-134219047D01*
X121952380Y-133980952D01*
X122000000Y-133885714D01*
X122047619Y-133838095D01*
X122142857Y-133790476D01*
X122238095Y-133790476D01*
X122380952Y-133838095D01*
X122952380Y-134409523D01*
X122952380Y-133790476D01*
X121952380Y-133171428D02*
X121952380Y-133076190D01*
X122000000Y-132980952D01*
X122047619Y-132933333D01*
X122142857Y-132885714D01*
X122333333Y-132838095D01*
X122571428Y-132838095D01*
X122761904Y-132885714D01*
X122857142Y-132933333D01*
X122904761Y-132980952D01*
X122952380Y-133076190D01*
X122952380Y-133171428D01*
X122904761Y-133266666D01*
X122857142Y-133314285D01*
X122761904Y-133361904D01*
X122571428Y-133409523D01*
X122333333Y-133409523D01*
X122142857Y-133361904D01*
X122047619Y-133314285D01*
X122000000Y-133266666D01*
X121952380Y-133171428D01*
%TO.C,D4*%
X64946304Y-109672380D02*
X64946304Y-108672380D01*
X65184400Y-108672380D01*
X65327257Y-108720000D01*
X65422495Y-108815238D01*
X65470114Y-108910476D01*
X65517733Y-109100952D01*
X65517733Y-109243809D01*
X65470114Y-109434285D01*
X65422495Y-109529523D01*
X65327257Y-109624761D01*
X65184400Y-109672380D01*
X64946304Y-109672380D01*
X66374876Y-109005714D02*
X66374876Y-109672380D01*
X66136780Y-108624761D02*
X65898685Y-109339047D01*
X66517733Y-109339047D01*
%TO.C,TLT2*%
X129236980Y-93787980D02*
X129808409Y-93787980D01*
X129522695Y-94787980D02*
X129522695Y-93787980D01*
X130617933Y-94787980D02*
X130141742Y-94787980D01*
X130141742Y-93787980D01*
X130808409Y-93787980D02*
X131379838Y-93787980D01*
X131094123Y-94787980D02*
X131094123Y-93787980D01*
X131665552Y-93883219D02*
X131713171Y-93835600D01*
X131808409Y-93787980D01*
X132046504Y-93787980D01*
X132141742Y-93835600D01*
X132189361Y-93883219D01*
X132236980Y-93978457D01*
X132236980Y-94073695D01*
X132189361Y-94216552D01*
X131617933Y-94787980D01*
X132236980Y-94787980D01*
%TO.C,C16*%
X106722942Y-94362542D02*
X106675323Y-94410161D01*
X106532466Y-94457780D01*
X106437228Y-94457780D01*
X106294371Y-94410161D01*
X106199133Y-94314923D01*
X106151514Y-94219685D01*
X106103895Y-94029209D01*
X106103895Y-93886352D01*
X106151514Y-93695876D01*
X106199133Y-93600638D01*
X106294371Y-93505400D01*
X106437228Y-93457780D01*
X106532466Y-93457780D01*
X106675323Y-93505400D01*
X106722942Y-93553019D01*
X107675323Y-94457780D02*
X107103895Y-94457780D01*
X107389609Y-94457780D02*
X107389609Y-93457780D01*
X107294371Y-93600638D01*
X107199133Y-93695876D01*
X107103895Y-93743495D01*
X108532466Y-93457780D02*
X108341990Y-93457780D01*
X108246752Y-93505400D01*
X108199133Y-93553019D01*
X108103895Y-93695876D01*
X108056276Y-93886352D01*
X108056276Y-94267304D01*
X108103895Y-94362542D01*
X108151514Y-94410161D01*
X108246752Y-94457780D01*
X108437228Y-94457780D01*
X108532466Y-94410161D01*
X108580085Y-94362542D01*
X108627704Y-94267304D01*
X108627704Y-94029209D01*
X108580085Y-93933971D01*
X108532466Y-93886352D01*
X108437228Y-93838733D01*
X108246752Y-93838733D01*
X108151514Y-93886352D01*
X108103895Y-93933971D01*
X108056276Y-94029209D01*
%TO.C,C10*%
X65357142Y-126557142D02*
X65309523Y-126604761D01*
X65166666Y-126652380D01*
X65071428Y-126652380D01*
X64928571Y-126604761D01*
X64833333Y-126509523D01*
X64785714Y-126414285D01*
X64738095Y-126223809D01*
X64738095Y-126080952D01*
X64785714Y-125890476D01*
X64833333Y-125795238D01*
X64928571Y-125700000D01*
X65071428Y-125652380D01*
X65166666Y-125652380D01*
X65309523Y-125700000D01*
X65357142Y-125747619D01*
X66309523Y-126652380D02*
X65738095Y-126652380D01*
X66023809Y-126652380D02*
X66023809Y-125652380D01*
X65928571Y-125795238D01*
X65833333Y-125890476D01*
X65738095Y-125938095D01*
X66928571Y-125652380D02*
X67023809Y-125652380D01*
X67119047Y-125700000D01*
X67166666Y-125747619D01*
X67214285Y-125842857D01*
X67261904Y-126033333D01*
X67261904Y-126271428D01*
X67214285Y-126461904D01*
X67166666Y-126557142D01*
X67119047Y-126604761D01*
X67023809Y-126652380D01*
X66928571Y-126652380D01*
X66833333Y-126604761D01*
X66785714Y-126557142D01*
X66738095Y-126461904D01*
X66690476Y-126271428D01*
X66690476Y-126033333D01*
X66738095Y-125842857D01*
X66785714Y-125747619D01*
X66833333Y-125700000D01*
X66928571Y-125652380D01*
%TO.C,R17*%
X69159380Y-96121457D02*
X68683190Y-96454790D01*
X69159380Y-96692885D02*
X68159380Y-96692885D01*
X68159380Y-96311933D01*
X68207000Y-96216695D01*
X68254619Y-96169076D01*
X68349857Y-96121457D01*
X68492714Y-96121457D01*
X68587952Y-96169076D01*
X68635571Y-96216695D01*
X68683190Y-96311933D01*
X68683190Y-96692885D01*
X69159380Y-95169076D02*
X69159380Y-95740504D01*
X69159380Y-95454790D02*
X68159380Y-95454790D01*
X68302238Y-95550028D01*
X68397476Y-95645266D01*
X68445095Y-95740504D01*
X68159380Y-94835742D02*
X68159380Y-94169076D01*
X69159380Y-94597647D01*
%TO.C,U1*%
X77338095Y-133902380D02*
X77338095Y-134711904D01*
X77385714Y-134807142D01*
X77433333Y-134854761D01*
X77528571Y-134902380D01*
X77719047Y-134902380D01*
X77814285Y-134854761D01*
X77861904Y-134807142D01*
X77909523Y-134711904D01*
X77909523Y-133902380D01*
X78909523Y-134902380D02*
X78338095Y-134902380D01*
X78623809Y-134902380D02*
X78623809Y-133902380D01*
X78528571Y-134045238D01*
X78433333Y-134140476D01*
X78338095Y-134188095D01*
%TO.C,R6*%
X65933333Y-104352380D02*
X65600000Y-103876190D01*
X65361904Y-104352380D02*
X65361904Y-103352380D01*
X65742857Y-103352380D01*
X65838095Y-103400000D01*
X65885714Y-103447619D01*
X65933333Y-103542857D01*
X65933333Y-103685714D01*
X65885714Y-103780952D01*
X65838095Y-103828571D01*
X65742857Y-103876190D01*
X65361904Y-103876190D01*
X66790476Y-103352380D02*
X66600000Y-103352380D01*
X66504761Y-103400000D01*
X66457142Y-103447619D01*
X66361904Y-103590476D01*
X66314285Y-103780952D01*
X66314285Y-104161904D01*
X66361904Y-104257142D01*
X66409523Y-104304761D01*
X66504761Y-104352380D01*
X66695238Y-104352380D01*
X66790476Y-104304761D01*
X66838095Y-104257142D01*
X66885714Y-104161904D01*
X66885714Y-103923809D01*
X66838095Y-103828571D01*
X66790476Y-103780952D01*
X66695238Y-103733333D01*
X66504761Y-103733333D01*
X66409523Y-103780952D01*
X66361904Y-103828571D01*
X66314285Y-103923809D01*
%TO.C,Q1*%
X60004761Y-137847619D02*
X59909523Y-137800000D01*
X59814285Y-137704761D01*
X59671428Y-137561904D01*
X59576190Y-137514285D01*
X59480952Y-137514285D01*
X59528571Y-137752380D02*
X59433333Y-137704761D01*
X59338095Y-137609523D01*
X59290476Y-137419047D01*
X59290476Y-137085714D01*
X59338095Y-136895238D01*
X59433333Y-136800000D01*
X59528571Y-136752380D01*
X59719047Y-136752380D01*
X59814285Y-136800000D01*
X59909523Y-136895238D01*
X59957142Y-137085714D01*
X59957142Y-137419047D01*
X59909523Y-137609523D01*
X59814285Y-137704761D01*
X59719047Y-137752380D01*
X59528571Y-137752380D01*
X60909523Y-137752380D02*
X60338095Y-137752380D01*
X60623809Y-137752380D02*
X60623809Y-136752380D01*
X60528571Y-136895238D01*
X60433333Y-136990476D01*
X60338095Y-137038095D01*
%TO.C,L6*%
X104933333Y-138052380D02*
X104457142Y-138052380D01*
X104457142Y-137052380D01*
X105695238Y-137052380D02*
X105504761Y-137052380D01*
X105409523Y-137100000D01*
X105361904Y-137147619D01*
X105266666Y-137290476D01*
X105219047Y-137480952D01*
X105219047Y-137861904D01*
X105266666Y-137957142D01*
X105314285Y-138004761D01*
X105409523Y-138052380D01*
X105600000Y-138052380D01*
X105695238Y-138004761D01*
X105742857Y-137957142D01*
X105790476Y-137861904D01*
X105790476Y-137623809D01*
X105742857Y-137528571D01*
X105695238Y-137480952D01*
X105600000Y-137433333D01*
X105409523Y-137433333D01*
X105314285Y-137480952D01*
X105266666Y-137528571D01*
X105219047Y-137623809D01*
%TO.C,R14*%
X107152380Y-128942857D02*
X106676190Y-129276190D01*
X107152380Y-129514285D02*
X106152380Y-129514285D01*
X106152380Y-129133333D01*
X106200000Y-129038095D01*
X106247619Y-128990476D01*
X106342857Y-128942857D01*
X106485714Y-128942857D01*
X106580952Y-128990476D01*
X106628571Y-129038095D01*
X106676190Y-129133333D01*
X106676190Y-129514285D01*
X107152380Y-127990476D02*
X107152380Y-128561904D01*
X107152380Y-128276190D02*
X106152380Y-128276190D01*
X106295238Y-128371428D01*
X106390476Y-128466666D01*
X106438095Y-128561904D01*
X106485714Y-127133333D02*
X107152380Y-127133333D01*
X106104761Y-127371428D02*
X106819047Y-127609523D01*
X106819047Y-126990476D01*
%TO.C,C29*%
X92953742Y-137754557D02*
X93001361Y-137802176D01*
X93048980Y-137945033D01*
X93048980Y-138040271D01*
X93001361Y-138183128D01*
X92906123Y-138278366D01*
X92810885Y-138325985D01*
X92620409Y-138373604D01*
X92477552Y-138373604D01*
X92287076Y-138325985D01*
X92191838Y-138278366D01*
X92096600Y-138183128D01*
X92048980Y-138040271D01*
X92048980Y-137945033D01*
X92096600Y-137802176D01*
X92144219Y-137754557D01*
X92144219Y-137373604D02*
X92096600Y-137325985D01*
X92048980Y-137230747D01*
X92048980Y-136992652D01*
X92096600Y-136897414D01*
X92144219Y-136849795D01*
X92239457Y-136802176D01*
X92334695Y-136802176D01*
X92477552Y-136849795D01*
X93048980Y-137421223D01*
X93048980Y-136802176D01*
X93048980Y-136325985D02*
X93048980Y-136135509D01*
X93001361Y-136040271D01*
X92953742Y-135992652D01*
X92810885Y-135897414D01*
X92620409Y-135849795D01*
X92239457Y-135849795D01*
X92144219Y-135897414D01*
X92096600Y-135945033D01*
X92048980Y-136040271D01*
X92048980Y-136230747D01*
X92096600Y-136325985D01*
X92144219Y-136373604D01*
X92239457Y-136421223D01*
X92477552Y-136421223D01*
X92572790Y-136373604D01*
X92620409Y-136325985D01*
X92668028Y-136230747D01*
X92668028Y-136040271D01*
X92620409Y-135945033D01*
X92572790Y-135897414D01*
X92477552Y-135849795D01*
%TO.C,R9*%
X74752380Y-126266666D02*
X74276190Y-126600000D01*
X74752380Y-126838095D02*
X73752380Y-126838095D01*
X73752380Y-126457142D01*
X73800000Y-126361904D01*
X73847619Y-126314285D01*
X73942857Y-126266666D01*
X74085714Y-126266666D01*
X74180952Y-126314285D01*
X74228571Y-126361904D01*
X74276190Y-126457142D01*
X74276190Y-126838095D01*
X74752380Y-125790476D02*
X74752380Y-125600000D01*
X74704761Y-125504761D01*
X74657142Y-125457142D01*
X74514285Y-125361904D01*
X74323809Y-125314285D01*
X73942857Y-125314285D01*
X73847619Y-125361904D01*
X73800000Y-125409523D01*
X73752380Y-125504761D01*
X73752380Y-125695238D01*
X73800000Y-125790476D01*
X73847619Y-125838095D01*
X73942857Y-125885714D01*
X74180952Y-125885714D01*
X74276190Y-125838095D01*
X74323809Y-125790476D01*
X74371428Y-125695238D01*
X74371428Y-125504761D01*
X74323809Y-125409523D01*
X74276190Y-125361904D01*
X74180952Y-125314285D01*
%TO.C,C13*%
X66277142Y-140742857D02*
X66324761Y-140790476D01*
X66372380Y-140933333D01*
X66372380Y-141028571D01*
X66324761Y-141171428D01*
X66229523Y-141266666D01*
X66134285Y-141314285D01*
X65943809Y-141361904D01*
X65800952Y-141361904D01*
X65610476Y-141314285D01*
X65515238Y-141266666D01*
X65420000Y-141171428D01*
X65372380Y-141028571D01*
X65372380Y-140933333D01*
X65420000Y-140790476D01*
X65467619Y-140742857D01*
X66372380Y-139790476D02*
X66372380Y-140361904D01*
X66372380Y-140076190D02*
X65372380Y-140076190D01*
X65515238Y-140171428D01*
X65610476Y-140266666D01*
X65658095Y-140361904D01*
X65372380Y-139457142D02*
X65372380Y-138838095D01*
X65753333Y-139171428D01*
X65753333Y-139028571D01*
X65800952Y-138933333D01*
X65848571Y-138885714D01*
X65943809Y-138838095D01*
X66181904Y-138838095D01*
X66277142Y-138885714D01*
X66324761Y-138933333D01*
X66372380Y-139028571D01*
X66372380Y-139314285D01*
X66324761Y-139409523D01*
X66277142Y-139457142D01*
%TO.C,C22*%
X122937542Y-144432257D02*
X122985161Y-144479876D01*
X123032780Y-144622733D01*
X123032780Y-144717971D01*
X122985161Y-144860828D01*
X122889923Y-144956066D01*
X122794685Y-145003685D01*
X122604209Y-145051304D01*
X122461352Y-145051304D01*
X122270876Y-145003685D01*
X122175638Y-144956066D01*
X122080400Y-144860828D01*
X122032780Y-144717971D01*
X122032780Y-144622733D01*
X122080400Y-144479876D01*
X122128019Y-144432257D01*
X122128019Y-144051304D02*
X122080400Y-144003685D01*
X122032780Y-143908447D01*
X122032780Y-143670352D01*
X122080400Y-143575114D01*
X122128019Y-143527495D01*
X122223257Y-143479876D01*
X122318495Y-143479876D01*
X122461352Y-143527495D01*
X123032780Y-144098923D01*
X123032780Y-143479876D01*
X122128019Y-143098923D02*
X122080400Y-143051304D01*
X122032780Y-142956066D01*
X122032780Y-142717971D01*
X122080400Y-142622733D01*
X122128019Y-142575114D01*
X122223257Y-142527495D01*
X122318495Y-142527495D01*
X122461352Y-142575114D01*
X123032780Y-143146542D01*
X123032780Y-142527495D01*
%TO.C,R3*%
X55852380Y-140666666D02*
X55376190Y-141000000D01*
X55852380Y-141238095D02*
X54852380Y-141238095D01*
X54852380Y-140857142D01*
X54900000Y-140761904D01*
X54947619Y-140714285D01*
X55042857Y-140666666D01*
X55185714Y-140666666D01*
X55280952Y-140714285D01*
X55328571Y-140761904D01*
X55376190Y-140857142D01*
X55376190Y-141238095D01*
X54852380Y-140333333D02*
X54852380Y-139714285D01*
X55233333Y-140047619D01*
X55233333Y-139904761D01*
X55280952Y-139809523D01*
X55328571Y-139761904D01*
X55423809Y-139714285D01*
X55661904Y-139714285D01*
X55757142Y-139761904D01*
X55804761Y-139809523D01*
X55852380Y-139904761D01*
X55852380Y-140190476D01*
X55804761Y-140285714D01*
X55757142Y-140333333D01*
%TO.C,R13*%
X108452380Y-131842857D02*
X107976190Y-132176190D01*
X108452380Y-132414285D02*
X107452380Y-132414285D01*
X107452380Y-132033333D01*
X107500000Y-131938095D01*
X107547619Y-131890476D01*
X107642857Y-131842857D01*
X107785714Y-131842857D01*
X107880952Y-131890476D01*
X107928571Y-131938095D01*
X107976190Y-132033333D01*
X107976190Y-132414285D01*
X108452380Y-130890476D02*
X108452380Y-131461904D01*
X108452380Y-131176190D02*
X107452380Y-131176190D01*
X107595238Y-131271428D01*
X107690476Y-131366666D01*
X107738095Y-131461904D01*
X107452380Y-130557142D02*
X107452380Y-129938095D01*
X107833333Y-130271428D01*
X107833333Y-130128571D01*
X107880952Y-130033333D01*
X107928571Y-129985714D01*
X108023809Y-129938095D01*
X108261904Y-129938095D01*
X108357142Y-129985714D01*
X108404761Y-130033333D01*
X108452380Y-130128571D01*
X108452380Y-130414285D01*
X108404761Y-130509523D01*
X108357142Y-130557142D01*
%TO.C,R2*%
X57449980Y-107227666D02*
X56973790Y-107561000D01*
X57449980Y-107799095D02*
X56449980Y-107799095D01*
X56449980Y-107418142D01*
X56497600Y-107322904D01*
X56545219Y-107275285D01*
X56640457Y-107227666D01*
X56783314Y-107227666D01*
X56878552Y-107275285D01*
X56926171Y-107322904D01*
X56973790Y-107418142D01*
X56973790Y-107799095D01*
X56545219Y-106846714D02*
X56497600Y-106799095D01*
X56449980Y-106703857D01*
X56449980Y-106465761D01*
X56497600Y-106370523D01*
X56545219Y-106322904D01*
X56640457Y-106275285D01*
X56735695Y-106275285D01*
X56878552Y-106322904D01*
X57449980Y-106894333D01*
X57449980Y-106275285D01*
%TO.C,C6*%
X60869533Y-104087142D02*
X60821914Y-104134761D01*
X60679057Y-104182380D01*
X60583819Y-104182380D01*
X60440961Y-104134761D01*
X60345723Y-104039523D01*
X60298104Y-103944285D01*
X60250485Y-103753809D01*
X60250485Y-103610952D01*
X60298104Y-103420476D01*
X60345723Y-103325238D01*
X60440961Y-103230000D01*
X60583819Y-103182380D01*
X60679057Y-103182380D01*
X60821914Y-103230000D01*
X60869533Y-103277619D01*
X61726676Y-103182380D02*
X61536200Y-103182380D01*
X61440961Y-103230000D01*
X61393342Y-103277619D01*
X61298104Y-103420476D01*
X61250485Y-103610952D01*
X61250485Y-103991904D01*
X61298104Y-104087142D01*
X61345723Y-104134761D01*
X61440961Y-104182380D01*
X61631438Y-104182380D01*
X61726676Y-104134761D01*
X61774295Y-104087142D01*
X61821914Y-103991904D01*
X61821914Y-103753809D01*
X61774295Y-103658571D01*
X61726676Y-103610952D01*
X61631438Y-103563333D01*
X61440961Y-103563333D01*
X61345723Y-103610952D01*
X61298104Y-103658571D01*
X61250485Y-103753809D01*
%TO.C,H1*%
X53038095Y-81552380D02*
X53038095Y-80552380D01*
X53038095Y-81028571D02*
X53609523Y-81028571D01*
X53609523Y-81552380D02*
X53609523Y-80552380D01*
X54609523Y-81552380D02*
X54038095Y-81552380D01*
X54323809Y-81552380D02*
X54323809Y-80552380D01*
X54228571Y-80695238D01*
X54133333Y-80790476D01*
X54038095Y-80838095D01*
%TO.C,R19*%
X68905380Y-113037857D02*
X68429190Y-113371190D01*
X68905380Y-113609285D02*
X67905380Y-113609285D01*
X67905380Y-113228333D01*
X67953000Y-113133095D01*
X68000619Y-113085476D01*
X68095857Y-113037857D01*
X68238714Y-113037857D01*
X68333952Y-113085476D01*
X68381571Y-113133095D01*
X68429190Y-113228333D01*
X68429190Y-113609285D01*
X68905380Y-112085476D02*
X68905380Y-112656904D01*
X68905380Y-112371190D02*
X67905380Y-112371190D01*
X68048238Y-112466428D01*
X68143476Y-112561666D01*
X68191095Y-112656904D01*
X68905380Y-111609285D02*
X68905380Y-111418809D01*
X68857761Y-111323571D01*
X68810142Y-111275952D01*
X68667285Y-111180714D01*
X68476809Y-111133095D01*
X68095857Y-111133095D01*
X68000619Y-111180714D01*
X67953000Y-111228333D01*
X67905380Y-111323571D01*
X67905380Y-111514047D01*
X67953000Y-111609285D01*
X68000619Y-111656904D01*
X68095857Y-111704523D01*
X68333952Y-111704523D01*
X68429190Y-111656904D01*
X68476809Y-111609285D01*
X68524428Y-111514047D01*
X68524428Y-111323571D01*
X68476809Y-111228333D01*
X68429190Y-111180714D01*
X68333952Y-111133095D01*
%TO.C,C18*%
X135757142Y-123842857D02*
X135804761Y-123890476D01*
X135852380Y-124033333D01*
X135852380Y-124128571D01*
X135804761Y-124271428D01*
X135709523Y-124366666D01*
X135614285Y-124414285D01*
X135423809Y-124461904D01*
X135280952Y-124461904D01*
X135090476Y-124414285D01*
X134995238Y-124366666D01*
X134900000Y-124271428D01*
X134852380Y-124128571D01*
X134852380Y-124033333D01*
X134900000Y-123890476D01*
X134947619Y-123842857D01*
X135852380Y-122890476D02*
X135852380Y-123461904D01*
X135852380Y-123176190D02*
X134852380Y-123176190D01*
X134995238Y-123271428D01*
X135090476Y-123366666D01*
X135138095Y-123461904D01*
X135280952Y-122319047D02*
X135233333Y-122414285D01*
X135185714Y-122461904D01*
X135090476Y-122509523D01*
X135042857Y-122509523D01*
X134947619Y-122461904D01*
X134900000Y-122414285D01*
X134852380Y-122319047D01*
X134852380Y-122128571D01*
X134900000Y-122033333D01*
X134947619Y-121985714D01*
X135042857Y-121938095D01*
X135090476Y-121938095D01*
X135185714Y-121985714D01*
X135233333Y-122033333D01*
X135280952Y-122128571D01*
X135280952Y-122319047D01*
X135328571Y-122414285D01*
X135376190Y-122461904D01*
X135471428Y-122509523D01*
X135661904Y-122509523D01*
X135757142Y-122461904D01*
X135804761Y-122414285D01*
X135852380Y-122319047D01*
X135852380Y-122128571D01*
X135804761Y-122033333D01*
X135757142Y-121985714D01*
X135661904Y-121938095D01*
X135471428Y-121938095D01*
X135376190Y-121985714D01*
X135328571Y-122033333D01*
X135280952Y-122128571D01*
%TO.C,R8*%
X66477580Y-143176066D02*
X66001390Y-143509400D01*
X66477580Y-143747495D02*
X65477580Y-143747495D01*
X65477580Y-143366542D01*
X65525200Y-143271304D01*
X65572819Y-143223685D01*
X65668057Y-143176066D01*
X65810914Y-143176066D01*
X65906152Y-143223685D01*
X65953771Y-143271304D01*
X66001390Y-143366542D01*
X66001390Y-143747495D01*
X65906152Y-142604638D02*
X65858533Y-142699876D01*
X65810914Y-142747495D01*
X65715676Y-142795114D01*
X65668057Y-142795114D01*
X65572819Y-142747495D01*
X65525200Y-142699876D01*
X65477580Y-142604638D01*
X65477580Y-142414161D01*
X65525200Y-142318923D01*
X65572819Y-142271304D01*
X65668057Y-142223685D01*
X65715676Y-142223685D01*
X65810914Y-142271304D01*
X65858533Y-142318923D01*
X65906152Y-142414161D01*
X65906152Y-142604638D01*
X65953771Y-142699876D01*
X66001390Y-142747495D01*
X66096628Y-142795114D01*
X66287104Y-142795114D01*
X66382342Y-142747495D01*
X66429961Y-142699876D01*
X66477580Y-142604638D01*
X66477580Y-142414161D01*
X66429961Y-142318923D01*
X66382342Y-142271304D01*
X66287104Y-142223685D01*
X66096628Y-142223685D01*
X66001390Y-142271304D01*
X65953771Y-142318923D01*
X65906152Y-142414161D01*
%TO.C,L3*%
X124521933Y-113583980D02*
X124045742Y-113583980D01*
X124045742Y-112583980D01*
X124760028Y-112583980D02*
X125379076Y-112583980D01*
X125045742Y-112964933D01*
X125188600Y-112964933D01*
X125283838Y-113012552D01*
X125331457Y-113060171D01*
X125379076Y-113155409D01*
X125379076Y-113393504D01*
X125331457Y-113488742D01*
X125283838Y-113536361D01*
X125188600Y-113583980D01*
X124902885Y-113583980D01*
X124807647Y-113536361D01*
X124760028Y-113488742D01*
%TO.C,H2*%
X136738095Y-81652380D02*
X136738095Y-80652380D01*
X136738095Y-81128571D02*
X137309523Y-81128571D01*
X137309523Y-81652380D02*
X137309523Y-80652380D01*
X137738095Y-80747619D02*
X137785714Y-80700000D01*
X137880952Y-80652380D01*
X138119047Y-80652380D01*
X138214285Y-80700000D01*
X138261904Y-80747619D01*
X138309523Y-80842857D01*
X138309523Y-80938095D01*
X138261904Y-81080952D01*
X137690476Y-81652380D01*
X138309523Y-81652380D01*
%TO.C,C28*%
X67683142Y-102922342D02*
X67635523Y-102969961D01*
X67492666Y-103017580D01*
X67397428Y-103017580D01*
X67254571Y-102969961D01*
X67159333Y-102874723D01*
X67111714Y-102779485D01*
X67064095Y-102589009D01*
X67064095Y-102446152D01*
X67111714Y-102255676D01*
X67159333Y-102160438D01*
X67254571Y-102065200D01*
X67397428Y-102017580D01*
X67492666Y-102017580D01*
X67635523Y-102065200D01*
X67683142Y-102112819D01*
X68064095Y-102112819D02*
X68111714Y-102065200D01*
X68206952Y-102017580D01*
X68445047Y-102017580D01*
X68540285Y-102065200D01*
X68587904Y-102112819D01*
X68635523Y-102208057D01*
X68635523Y-102303295D01*
X68587904Y-102446152D01*
X68016476Y-103017580D01*
X68635523Y-103017580D01*
X69206952Y-102446152D02*
X69111714Y-102398533D01*
X69064095Y-102350914D01*
X69016476Y-102255676D01*
X69016476Y-102208057D01*
X69064095Y-102112819D01*
X69111714Y-102065200D01*
X69206952Y-102017580D01*
X69397428Y-102017580D01*
X69492666Y-102065200D01*
X69540285Y-102112819D01*
X69587904Y-102208057D01*
X69587904Y-102255676D01*
X69540285Y-102350914D01*
X69492666Y-102398533D01*
X69397428Y-102446152D01*
X69206952Y-102446152D01*
X69111714Y-102493771D01*
X69064095Y-102541390D01*
X69016476Y-102636628D01*
X69016476Y-102827104D01*
X69064095Y-102922342D01*
X69111714Y-102969961D01*
X69206952Y-103017580D01*
X69397428Y-103017580D01*
X69492666Y-102969961D01*
X69540285Y-102922342D01*
X69587904Y-102827104D01*
X69587904Y-102636628D01*
X69540285Y-102541390D01*
X69492666Y-102493771D01*
X69397428Y-102446152D01*
%TO.C,RV2*%
X70550161Y-118181380D02*
X70216828Y-117705190D01*
X69978733Y-118181380D02*
X69978733Y-117181380D01*
X70359685Y-117181380D01*
X70454923Y-117229000D01*
X70502542Y-117276619D01*
X70550161Y-117371857D01*
X70550161Y-117514714D01*
X70502542Y-117609952D01*
X70454923Y-117657571D01*
X70359685Y-117705190D01*
X69978733Y-117705190D01*
X70835876Y-117181380D02*
X71169209Y-118181380D01*
X71502542Y-117181380D01*
X71788257Y-117276619D02*
X71835876Y-117229000D01*
X71931114Y-117181380D01*
X72169209Y-117181380D01*
X72264447Y-117229000D01*
X72312066Y-117276619D01*
X72359685Y-117371857D01*
X72359685Y-117467095D01*
X72312066Y-117609952D01*
X71740638Y-118181380D01*
X72359685Y-118181380D01*
%TO.C,R5*%
X64733333Y-98152380D02*
X64400000Y-97676190D01*
X64161904Y-98152380D02*
X64161904Y-97152380D01*
X64542857Y-97152380D01*
X64638095Y-97200000D01*
X64685714Y-97247619D01*
X64733333Y-97342857D01*
X64733333Y-97485714D01*
X64685714Y-97580952D01*
X64638095Y-97628571D01*
X64542857Y-97676190D01*
X64161904Y-97676190D01*
X65638095Y-97152380D02*
X65161904Y-97152380D01*
X65114285Y-97628571D01*
X65161904Y-97580952D01*
X65257142Y-97533333D01*
X65495238Y-97533333D01*
X65590476Y-97580952D01*
X65638095Y-97628571D01*
X65685714Y-97723809D01*
X65685714Y-97961904D01*
X65638095Y-98057142D01*
X65590476Y-98104761D01*
X65495238Y-98152380D01*
X65257142Y-98152380D01*
X65161904Y-98104761D01*
X65114285Y-98057142D01*
%TO.C,R11*%
X119705380Y-115831857D02*
X119229190Y-116165190D01*
X119705380Y-116403285D02*
X118705380Y-116403285D01*
X118705380Y-116022333D01*
X118753000Y-115927095D01*
X118800619Y-115879476D01*
X118895857Y-115831857D01*
X119038714Y-115831857D01*
X119133952Y-115879476D01*
X119181571Y-115927095D01*
X119229190Y-116022333D01*
X119229190Y-116403285D01*
X119705380Y-114879476D02*
X119705380Y-115450904D01*
X119705380Y-115165190D02*
X118705380Y-115165190D01*
X118848238Y-115260428D01*
X118943476Y-115355666D01*
X118991095Y-115450904D01*
X119705380Y-113927095D02*
X119705380Y-114498523D01*
X119705380Y-114212809D02*
X118705380Y-114212809D01*
X118848238Y-114308047D01*
X118943476Y-114403285D01*
X118991095Y-114498523D01*
%TO.C,C4*%
X65486342Y-123102666D02*
X65533961Y-123150285D01*
X65581580Y-123293142D01*
X65581580Y-123388380D01*
X65533961Y-123531238D01*
X65438723Y-123626476D01*
X65343485Y-123674095D01*
X65153009Y-123721714D01*
X65010152Y-123721714D01*
X64819676Y-123674095D01*
X64724438Y-123626476D01*
X64629200Y-123531238D01*
X64581580Y-123388380D01*
X64581580Y-123293142D01*
X64629200Y-123150285D01*
X64676819Y-123102666D01*
X64914914Y-122245523D02*
X65581580Y-122245523D01*
X64533961Y-122483619D02*
X65248247Y-122721714D01*
X65248247Y-122102666D01*
%TO.C,L2*%
X72741380Y-123255066D02*
X72741380Y-123731257D01*
X71741380Y-123731257D01*
X71836619Y-122969352D02*
X71789000Y-122921733D01*
X71741380Y-122826495D01*
X71741380Y-122588400D01*
X71789000Y-122493161D01*
X71836619Y-122445542D01*
X71931857Y-122397923D01*
X72027095Y-122397923D01*
X72169952Y-122445542D01*
X72741380Y-123016971D01*
X72741380Y-122397923D01*
%TO.C,TLT1*%
X93676980Y-93838780D02*
X94248409Y-93838780D01*
X93962695Y-94838780D02*
X93962695Y-93838780D01*
X95057933Y-94838780D02*
X94581742Y-94838780D01*
X94581742Y-93838780D01*
X95248409Y-93838780D02*
X95819838Y-93838780D01*
X95534123Y-94838780D02*
X95534123Y-93838780D01*
X96676980Y-94838780D02*
X96105552Y-94838780D01*
X96391266Y-94838780D02*
X96391266Y-93838780D01*
X96296028Y-93981638D01*
X96200790Y-94076876D01*
X96105552Y-94124495D01*
D11*
%TO.C,J2*%
X142360000Y-85690000D02*
X139040000Y-85690000D01*
X142360000Y-92910000D02*
X139040000Y-92910000D01*
X137090000Y-87640000D02*
X137090000Y-90960000D01*
X144310000Y-87640000D02*
X144310000Y-90960000D01*
%TO.C,J1*%
X49240000Y-93010000D02*
X52560000Y-93010000D01*
X49240000Y-85790000D02*
X52560000Y-85790000D01*
X54510000Y-91060000D02*
X54510000Y-87740000D01*
X47290000Y-91060000D02*
X47290000Y-87740000D01*
%TO.C,Q3*%
X80060000Y-111222500D02*
X80060000Y-108682500D01*
X85140000Y-111222500D02*
X85140000Y-108682500D01*
X82600000Y-111222500D02*
X82600000Y-108682500D01*
X87720000Y-111222500D02*
X77480000Y-111222500D01*
X87720000Y-127112500D02*
X87720000Y-111222500D01*
X77480000Y-127112500D02*
X77480000Y-111222500D01*
X87720000Y-127112500D02*
X77480000Y-127112500D01*
%TO.C,Q2*%
X85140000Y-96477500D02*
X85140000Y-99017500D01*
X80060000Y-96477500D02*
X80060000Y-99017500D01*
X82600000Y-96477500D02*
X82600000Y-99017500D01*
X77480000Y-96477500D02*
X87720000Y-96477500D01*
X77480000Y-80587500D02*
X77480000Y-96477500D01*
X87720000Y-80587500D02*
X87720000Y-96477500D01*
X77480000Y-80587500D02*
X87720000Y-80587500D01*
%TO.C,C1*%
X59261252Y-147935000D02*
X58738748Y-147935000D01*
X59261252Y-146465000D02*
X58738748Y-146465000D01*
%TO.C,R1*%
X59031200Y-109069136D02*
X59031200Y-109523264D01*
X60501200Y-109069136D02*
X60501200Y-109523264D01*
D10*
%TO.C,U2*%
X102175000Y-124025000D02*
X102175000Y-124225000D01*
X102175000Y-129175000D02*
X98025000Y-129175000D01*
X102175000Y-124025000D02*
X98025000Y-124025000D01*
X102175000Y-129175000D02*
X102175000Y-128975000D01*
X102175000Y-128975000D02*
X103475000Y-128975000D01*
X98025000Y-129175000D02*
X98025000Y-128975000D01*
X98025000Y-124025000D02*
X98025000Y-124225000D01*
D11*
%TO.C,C8*%
X63431052Y-113257000D02*
X62908548Y-113257000D01*
X63431052Y-111787000D02*
X62908548Y-111787000D01*
%TO.C,L1*%
X59340000Y-144610242D02*
X59340000Y-143789758D01*
X60460000Y-144610242D02*
X60460000Y-143789758D01*
%TO.C,C12*%
X64635000Y-140361252D02*
X64635000Y-139838748D01*
X63165000Y-140361252D02*
X63165000Y-139838748D01*
%TO.C,L4*%
X126913052Y-125027000D02*
X124140548Y-125027000D01*
X126913052Y-121607000D02*
X124140548Y-121607000D01*
%TO.C,C14*%
X102336548Y-115177400D02*
X103759052Y-115177400D01*
X102336548Y-112457400D02*
X103759052Y-112457400D01*
%TO.C,C7*%
X67464000Y-122928748D02*
X67464000Y-123451252D01*
X68934000Y-122928748D02*
X68934000Y-123451252D01*
%TO.C,C26*%
X110635000Y-131161252D02*
X110635000Y-130638748D01*
X109165000Y-131161252D02*
X109165000Y-130638748D01*
%TO.C,C15*%
X102768348Y-91580800D02*
X104190852Y-91580800D01*
X102768348Y-88860800D02*
X104190852Y-88860800D01*
%TO.C,C24*%
X96045800Y-132661252D02*
X96045800Y-132138748D01*
X94575800Y-132661252D02*
X94575800Y-132138748D01*
%TO.C,C17*%
X102336548Y-118733400D02*
X103759052Y-118733400D01*
X102336548Y-116013400D02*
X103759052Y-116013400D01*
%TO.C,C19*%
X129135200Y-123502052D02*
X129135200Y-122979548D01*
X130605200Y-123502052D02*
X130605200Y-122979548D01*
%TO.C,R7*%
X64827064Y-145635000D02*
X64372936Y-145635000D01*
X64827064Y-144165000D02*
X64372936Y-144165000D01*
%TO.C,R4*%
X62990400Y-109069136D02*
X62990400Y-109523264D01*
X61520400Y-109069136D02*
X61520400Y-109523264D01*
%TO.C,IC1*%
X113114800Y-129352600D02*
X113114800Y-130097600D01*
X115874800Y-135772600D02*
X118634800Y-135772600D01*
X115874800Y-129352600D02*
X113114800Y-129352600D01*
X113114800Y-135772600D02*
X113114800Y-135027600D01*
X118634800Y-135027600D02*
X120324800Y-135027600D01*
X115874800Y-135772600D02*
X113114800Y-135772600D01*
X118634800Y-135772600D02*
X118634800Y-135027600D01*
X115874800Y-129352600D02*
X118634800Y-129352600D01*
X118634800Y-129352600D02*
X118634800Y-130097600D01*
%TO.C,R18*%
X70032200Y-109210464D02*
X70032200Y-107756336D01*
X71852200Y-109210464D02*
X71852200Y-107756336D01*
%TO.C,C25*%
X120914100Y-119123037D02*
X119849663Y-118058600D01*
X122404100Y-126178600D02*
X121154100Y-126178600D01*
X119849663Y-128778600D02*
X110194100Y-128778600D01*
X110194100Y-118058600D02*
X110194100Y-121908600D01*
X121779100Y-126803600D02*
X121779100Y-125553600D01*
X110194100Y-128778600D02*
X110194100Y-124928600D01*
X120914100Y-119123037D02*
X120914100Y-121908600D01*
X120914100Y-127714163D02*
X120914100Y-124928600D01*
X120914100Y-127714163D02*
X119849663Y-128778600D01*
X119849663Y-118058600D02*
X110194100Y-118058600D01*
%TO.C,TR1*%
X53721000Y-98069400D02*
X47879000Y-98069400D01*
X47879000Y-106197400D02*
X53721000Y-106197400D01*
X47879000Y-98069400D02*
X47879000Y-98577400D01*
X53721000Y-105689400D02*
X54610000Y-105689400D01*
X47879000Y-105689400D02*
X47879000Y-106197400D01*
X53721000Y-98577400D02*
X53721000Y-98069400D01*
X53721000Y-106197400D02*
X53721000Y-105689400D01*
%TO.C,D1*%
X94000000Y-150000000D02*
X94000000Y-144300000D01*
X91000000Y-144300000D02*
X91000000Y-150000000D01*
X94000000Y-144300000D02*
X91000000Y-144300000D01*
%TO.C,C11*%
X89360000Y-103088748D02*
X89360000Y-104511252D01*
X86640000Y-103088748D02*
X86640000Y-104511252D01*
%TO.C,C23*%
X125372800Y-141826348D02*
X125372800Y-142348852D01*
X123902800Y-141826348D02*
X123902800Y-142348852D01*
%TO.C,D3*%
X63339000Y-100538400D02*
X63339000Y-102458400D01*
X66024000Y-100538400D02*
X63339000Y-100538400D01*
X63339000Y-102458400D02*
X66024000Y-102458400D01*
%TO.C,C9*%
X66865000Y-136161252D02*
X66865000Y-135638748D01*
X68335000Y-136161252D02*
X68335000Y-135638748D01*
%TO.C,C21*%
X125869900Y-127274437D02*
X125869900Y-129560000D01*
X124629900Y-126560000D02*
X124629900Y-128560000D01*
X125869900Y-141965563D02*
X126934337Y-143030000D01*
X125869900Y-127274437D02*
X126934337Y-126210000D01*
X142689900Y-143030000D02*
X142689900Y-139680000D01*
X142689900Y-126210000D02*
X142689900Y-129560000D01*
X126934337Y-143030000D02*
X142689900Y-143030000D01*
X125869900Y-141965563D02*
X125869900Y-139680000D01*
X126934337Y-126210000D02*
X142689900Y-126210000D01*
X123629900Y-127560000D02*
X125629900Y-127560000D01*
%TO.C,R10*%
X122419200Y-116065463D02*
X122419200Y-117512937D01*
X125129200Y-116065463D02*
X125129200Y-117512937D01*
%TO.C,R12*%
X129023200Y-116014663D02*
X129023200Y-117462137D01*
X131733200Y-116014663D02*
X131733200Y-117462137D01*
%TO.C,L5*%
X76995600Y-102652148D02*
X76995600Y-105424652D01*
X73575600Y-102652148D02*
X73575600Y-105424652D01*
%TO.C,C27*%
X71239748Y-104167000D02*
X71762252Y-104167000D01*
X71239748Y-105637000D02*
X71762252Y-105637000D01*
%TO.C,R16*%
X70083000Y-98434536D02*
X70083000Y-99888664D01*
X71903000Y-98434536D02*
X71903000Y-99888664D01*
%TO.C,C5*%
X60825748Y-100125200D02*
X61348252Y-100125200D01*
X60825748Y-98655200D02*
X61348252Y-98655200D01*
%TO.C,J3*%
X99605000Y-150562500D02*
X99605000Y-144562500D01*
X102905000Y-144562500D02*
X102905000Y-150562500D01*
X103855000Y-141902500D02*
X96115000Y-141902500D01*
X99605000Y-141505429D02*
X99605000Y-141902500D01*
X97825000Y-150562500D02*
X97065000Y-150562500D01*
X102245000Y-144562500D02*
X102245000Y-150562500D01*
X102905000Y-141572500D02*
X102905000Y-141902500D01*
X98715000Y-141902500D02*
X98715000Y-144562500D01*
X96115000Y-141902500D02*
X96115000Y-144562500D01*
X97825000Y-144562500D02*
X97825000Y-150562500D01*
X97065000Y-141505429D02*
X97065000Y-141902500D01*
X102605000Y-144562500D02*
X102605000Y-150562500D01*
X102845000Y-144562500D02*
X102845000Y-150562500D01*
X102145000Y-141572500D02*
X102145000Y-141902500D01*
X100365000Y-144562500D02*
X100365000Y-150562500D01*
X102145000Y-150562500D02*
X102145000Y-144562500D01*
X96115000Y-144562500D02*
X103855000Y-144562500D01*
X100365000Y-150562500D02*
X99605000Y-150562500D01*
X102485000Y-144562500D02*
X102485000Y-150562500D01*
X102365000Y-144562500D02*
X102365000Y-150562500D01*
X100365000Y-141505429D02*
X100365000Y-141902500D01*
X102525000Y-139192500D02*
X103795000Y-139192500D01*
X97825000Y-141505429D02*
X97825000Y-141902500D01*
X102905000Y-150562500D02*
X102145000Y-150562500D01*
X103795000Y-139192500D02*
X103795000Y-140462500D01*
X97065000Y-150562500D02*
X97065000Y-144562500D01*
X102725000Y-144562500D02*
X102725000Y-150562500D01*
X103855000Y-144562500D02*
X103855000Y-141902500D01*
X101255000Y-141902500D02*
X101255000Y-144562500D01*
%TO.C,RV3*%
X97580000Y-130260000D02*
X97580000Y-129780000D01*
X102420000Y-131060000D02*
X102420000Y-129780000D01*
X102420000Y-134440000D02*
X102420000Y-134440000D01*
X102420000Y-134440000D02*
X102420000Y-133540000D01*
X102420000Y-134440000D02*
X102420000Y-133540000D01*
X102420000Y-134820000D02*
X102420000Y-133540000D01*
X102420000Y-129780000D02*
X97580000Y-129780000D01*
X102420000Y-134820000D02*
X97580000Y-134820000D01*
X97580000Y-134820000D02*
X97580000Y-134340000D01*
X97580000Y-132560000D02*
X97580000Y-132040000D01*
%TO.C,RV1*%
X58475400Y-115258200D02*
X57195400Y-115258200D01*
X61855400Y-115258200D02*
X60955400Y-115258200D01*
X57195400Y-115258200D02*
X57195400Y-120098200D01*
X61855400Y-115258200D02*
X61855400Y-115258200D01*
X62235400Y-115258200D02*
X60955400Y-115258200D01*
X61855400Y-115258200D02*
X60955400Y-115258200D01*
X57675400Y-120098200D02*
X57195400Y-120098200D01*
X62235400Y-115258200D02*
X62235400Y-120098200D01*
X59975400Y-120098200D02*
X59455400Y-120098200D01*
X62235400Y-120098200D02*
X61755400Y-120098200D01*
%TO.C,R15*%
X105727064Y-133165000D02*
X105272936Y-133165000D01*
X105727064Y-134635000D02*
X105272936Y-134635000D01*
%TO.C,C3*%
X57165000Y-143938748D02*
X57165000Y-144461252D01*
X58635000Y-143938748D02*
X58635000Y-144461252D01*
%TO.C,C2*%
X58412748Y-113257000D02*
X58935252Y-113257000D01*
X58412748Y-111787000D02*
X58935252Y-111787000D01*
%TO.C,D2*%
X71106400Y-127306400D02*
X68821400Y-127306400D01*
X71106400Y-128776400D02*
X71106400Y-127306400D01*
X68821400Y-128776400D02*
X71106400Y-128776400D01*
%TO.C,J4*%
X117340000Y-150562500D02*
X116580000Y-150562500D01*
X119820000Y-144562500D02*
X119820000Y-150562500D01*
X118230000Y-141902500D02*
X118230000Y-144562500D01*
X119120000Y-150562500D02*
X119120000Y-144562500D01*
X114800000Y-150562500D02*
X114040000Y-150562500D01*
X119220000Y-144562500D02*
X119220000Y-150562500D01*
X119500000Y-139192500D02*
X120770000Y-139192500D01*
X114040000Y-150562500D02*
X114040000Y-144562500D01*
X115690000Y-141902500D02*
X115690000Y-144562500D01*
X117340000Y-141505429D02*
X117340000Y-141902500D01*
X119580000Y-144562500D02*
X119580000Y-150562500D01*
X114800000Y-144562500D02*
X114800000Y-150562500D01*
X116580000Y-141505429D02*
X116580000Y-141902500D01*
X112260000Y-150562500D02*
X111500000Y-150562500D01*
X119880000Y-150562500D02*
X119120000Y-150562500D01*
X113150000Y-141902500D02*
X113150000Y-144562500D01*
X119880000Y-141572500D02*
X119880000Y-141902500D01*
X110550000Y-141902500D02*
X110550000Y-144562500D01*
X111500000Y-150562500D02*
X111500000Y-144562500D01*
X110550000Y-144562500D02*
X120830000Y-144562500D01*
X120830000Y-141902500D02*
X110550000Y-141902500D01*
X119120000Y-141572500D02*
X119120000Y-141902500D01*
X114800000Y-141505429D02*
X114800000Y-141902500D01*
X116580000Y-150562500D02*
X116580000Y-144562500D01*
X117340000Y-144562500D02*
X117340000Y-150562500D01*
X119460000Y-144562500D02*
X119460000Y-150562500D01*
X119880000Y-144562500D02*
X119880000Y-150562500D01*
X120770000Y-139192500D02*
X120770000Y-140462500D01*
X120830000Y-144562500D02*
X120830000Y-141902500D01*
X114040000Y-141505429D02*
X114040000Y-141902500D01*
X111500000Y-141505429D02*
X111500000Y-141902500D01*
X112260000Y-141505429D02*
X112260000Y-141902500D01*
X112260000Y-144562500D02*
X112260000Y-150562500D01*
X119340000Y-144562500D02*
X119340000Y-150562500D01*
X119700000Y-144562500D02*
X119700000Y-150562500D01*
%TO.C,C20*%
X123335000Y-130961252D02*
X123335000Y-130438748D01*
X121865000Y-130961252D02*
X121865000Y-130438748D01*
%TO.C,D4*%
X66074800Y-106558200D02*
X63389800Y-106558200D01*
X63389800Y-106558200D02*
X63389800Y-108478200D01*
X63389800Y-108478200D02*
X66074800Y-108478200D01*
%TO.C,TLT2*%
X118287800Y-99237800D02*
X143179800Y-99237800D01*
X143179800Y-99237800D02*
X143179800Y-108127800D01*
X143179800Y-108127800D02*
X118287800Y-108127800D01*
X118287800Y-108127800D02*
X118287800Y-99237800D01*
%TO.C,C16*%
X102768348Y-92391400D02*
X104190852Y-92391400D01*
X102768348Y-95111400D02*
X104190852Y-95111400D01*
%TO.C,C10*%
X69761252Y-125465000D02*
X69238748Y-125465000D01*
X69761252Y-126935000D02*
X69238748Y-126935000D01*
%TO.C,R17*%
X67644600Y-98434536D02*
X67644600Y-99888664D01*
X69464600Y-98434536D02*
X69464600Y-99888664D01*
%TO.C,U1*%
X76650000Y-146300000D02*
X75150000Y-146300000D01*
X76650000Y-135900000D02*
X75150000Y-135900000D01*
X75150000Y-146300000D02*
X75150000Y-144490000D01*
X75150000Y-144490000D02*
X74050000Y-144490000D01*
X75150000Y-135900000D02*
X75150000Y-137710000D01*
X75150000Y-137710000D02*
X70025000Y-137710000D01*
%TO.C,R6*%
X64847736Y-104675000D02*
X65301864Y-104675000D01*
X64847736Y-106145000D02*
X65301864Y-106145000D01*
%TO.C,Q1*%
X61460000Y-139900000D02*
X61460000Y-140550000D01*
X58340000Y-139900000D02*
X58340000Y-141575000D01*
X61460000Y-139900000D02*
X61460000Y-139250000D01*
X58340000Y-139900000D02*
X58340000Y-139250000D01*
%TO.C,L6*%
X104089758Y-135440000D02*
X104910242Y-135440000D01*
X104089758Y-136560000D02*
X104910242Y-136560000D01*
%TO.C,R14*%
X105735000Y-128772936D02*
X105735000Y-129227064D01*
X104265000Y-128772936D02*
X104265000Y-129227064D01*
%TO.C,C29*%
X93665000Y-137423752D02*
X93665000Y-136901248D01*
X95135000Y-137423752D02*
X95135000Y-136901248D01*
%TO.C,R9*%
X71865000Y-125756936D02*
X71865000Y-126211064D01*
X73335000Y-125756936D02*
X73335000Y-126211064D01*
%TO.C,C13*%
X66865000Y-140361252D02*
X66865000Y-139838748D01*
X68335000Y-140361252D02*
X68335000Y-139838748D01*
%TO.C,C22*%
X121693000Y-140124548D02*
X121693000Y-140647052D01*
X123163000Y-140124548D02*
X123163000Y-140647052D01*
%TO.C,R3*%
X57735000Y-140627064D02*
X57735000Y-140172936D01*
X56265000Y-140627064D02*
X56265000Y-140172936D01*
%TO.C,R13*%
X105272936Y-132635000D02*
X105727064Y-132635000D01*
X105272936Y-131165000D02*
X105727064Y-131165000D01*
%TO.C,R2*%
X55287600Y-100007136D02*
X55287600Y-104361264D01*
X58707600Y-100007136D02*
X58707600Y-104361264D01*
%TO.C,C6*%
X60774948Y-106145000D02*
X61297452Y-106145000D01*
X60774948Y-104675000D02*
X61297452Y-104675000D01*
%TO.C,R19*%
X67517600Y-109210464D02*
X67517600Y-107756336D01*
X69337600Y-109210464D02*
X69337600Y-107756336D01*
%TO.C,C18*%
X132865800Y-123502052D02*
X132865800Y-122979548D01*
X131395800Y-123502052D02*
X131395800Y-122979548D01*
%TO.C,R8*%
X68335000Y-143772936D02*
X68335000Y-144227064D01*
X66865000Y-143772936D02*
X66865000Y-144227064D01*
%TO.C,L3*%
X121285000Y-114147600D02*
X133985000Y-114147600D01*
X133985000Y-114147600D02*
X133985000Y-119227600D01*
X133985000Y-119227600D02*
X121285000Y-119227600D01*
X121285000Y-119227600D02*
X121285000Y-114147600D01*
%TO.C,C28*%
X71188948Y-103427200D02*
X71711452Y-103427200D01*
X71188948Y-101957200D02*
X71711452Y-101957200D01*
%TO.C,RV2*%
X69652200Y-115258200D02*
X69652200Y-120098200D01*
X65892200Y-115258200D02*
X64612200Y-115258200D01*
X65092200Y-120098200D02*
X64612200Y-120098200D01*
X69272200Y-115258200D02*
X69272200Y-115258200D01*
X64612200Y-115258200D02*
X64612200Y-120098200D01*
X69272200Y-115258200D02*
X68372200Y-115258200D01*
X67392200Y-120098200D02*
X66872200Y-120098200D01*
X69272200Y-115258200D02*
X68372200Y-115258200D01*
X69652200Y-120098200D02*
X69172200Y-120098200D01*
X69652200Y-115258200D02*
X68372200Y-115258200D01*
%TO.C,R5*%
X64847736Y-98604400D02*
X65301864Y-98604400D01*
X64847736Y-100074400D02*
X65301864Y-100074400D01*
%TO.C,R11*%
X128431200Y-116065463D02*
X128431200Y-117512937D01*
X125721200Y-116065463D02*
X125721200Y-117512937D01*
%TO.C,C4*%
X62714200Y-122674748D02*
X62714200Y-123197252D01*
X64184200Y-122674748D02*
X64184200Y-123197252D01*
%TO.C,L2*%
X70179000Y-122678158D02*
X70179000Y-123498642D01*
X71299000Y-122678158D02*
X71299000Y-123498642D01*
%TO.C,TLT1*%
X90754200Y-99237800D02*
X115646200Y-99237800D01*
X115646200Y-99237800D02*
X115646200Y-108127800D01*
X115646200Y-108127800D02*
X90754200Y-108127800D01*
X90754200Y-108127800D02*
X90754200Y-99237800D01*
%TD*%
M02*
