M48
; DRILL file {KiCad (6.0.1)} date Wed Jan 26 11:25:24 2022
; FORMAT={-:-/ absolute / inch / decimal}
; #@! TF.CreationDate,2022-01-26T11:25:24+01:00
; #@! TF.GenerationSoftware,Kicad,Pcbnew,(6.0.1)
; #@! TF.FileFunction,Plated,1,2,PTH
FMAT,2
INCH
; #@! TA.AperFunction,Plated,PTH,ViaDrill
T1C0.0157
; #@! TA.AperFunction,Plated,PTH,ComponentDrill
T2C0.0394
; #@! TA.AperFunction,Plated,PTH,ComponentDrill
T3C0.0591
; #@! TA.AperFunction,Plated,PTH,ComponentDrill
T4C0.0669
%
G90
G05
T1
X1.9016Y-4.1693
X2.2402Y-5.7165
X2.252Y-5.7953
X2.2677Y-4.3898
X2.3071Y-4.7677
X2.4803Y-3.9961
X2.4882Y-4.2087
X2.4961Y-4.9094
X2.5039Y-5.7402
X2.5157Y-5.4409
X2.563Y-4.4291
X2.6024Y-4.7717
X2.6378Y-4.8937
X2.6693Y-4.9646
X2.6811Y-5.0394
X3.252Y-3.8819
X3.252Y-3.9436
X3.252Y-4.0433
X3.252Y-4.122
X3.252Y-4.2257
X3.252Y-4.2795
X3.7165Y-5.4724
X3.752Y-5.1378
X3.7795Y-4.9606
X3.7992Y-5.1654
X4.2795Y-4.8583
X4.3031Y-4.7913
X4.3189Y-4.9173
X4.3189Y-5.0748
X4.3819Y-4.7913
X4.3858Y-4.9213
X4.4213Y-5.1102
X4.4528Y-4.7913
X4.4567Y-4.9213
X4.4882Y-4.8543
X4.7874Y-5.185
X4.82Y-5.6091
X4.9055Y-5.6772
X5.1142Y-4.9291
X5.2047Y-4.9291
X5.3583Y-5.189
X5.3622Y-5.2953
X5.3622Y-5.4213
X5.3937Y-4.2756
X5.5354Y-4.1417
X5.5354Y-5.0866
X5.5354Y-5.5039
X5.5433Y-4.4055
X5.6457Y-5.5079
X5.6575Y-5.0827
X5.689Y-4.2756
T2
X3.8364Y-5.53
X3.9364Y-5.53
X4.0364Y-5.53
X4.4047Y-5.53
X4.5047Y-5.53
X4.6047Y-5.53
X4.7047Y-5.53
T3
X2.0039Y-3.5197
X5.5394Y-3.5157
T4
X1.9039Y-3.4197
X1.9039Y-3.6197
X2.1039Y-3.4197
X2.1039Y-3.6197
X5.4394Y-3.4157
X5.4394Y-3.6157
X5.6394Y-3.4157
X5.6394Y-3.6157
T0
M30
